<mxfile host="65bd71144e">
    <diagram id="JoYjc0zaWM5WkOSIl2Tc" name="Page-1">
        <mxGraphModel dx="1060" dy="768" grid="1" gridSize="10" guides="1" tooltips="1" connect="1" arrows="1" fold="1" page="1" pageScale="1" pageWidth="850" pageHeight="1100" math="0" shadow="0">
            <root>
                <mxCell id="0"/>
                <mxCell id="1" parent="0"/>
                <mxCell id="3" value="&lt;span&gt;Google &lt;/span&gt;Cloud Platform" style="shadow=0;fontSize=14;align=left;spacing=10;9E9E9E;verticalAlign=top;spacingTop=-4;fontStyle=1;spacingLeft=40;html=1;fillColor=#f5f5f5;fontColor=#333333;strokeColor=#666666;" parent="1" vertex="1">
                    <mxGeometry x="10" y="10" width="830" height="620" as="geometry"/>
                </mxCell>
                <mxCell id="4" value="" style="shape=mxgraph.gcp2.google_cloud_platform;fillColor=#F6F6F6;strokeColor=none;shadow=0;gradientColor=none;" parent="3" vertex="1">
                    <mxGeometry width="23" height="20" relative="1" as="geometry">
                        <mxPoint x="20" y="10" as="offset"/>
                    </mxGeometry>
                </mxCell>
                <mxCell id="8" style="edgeStyle=none;html=1;entryX=0.25;entryY=0;entryDx=0;entryDy=0;strokeColor=#999494;" parent="3" source="6" edge="1">
                    <mxGeometry relative="1" as="geometry">
                        <mxPoint x="95.44000000000005" y="220" as="targetPoint"/>
                    </mxGeometry>
                </mxCell>
                <mxCell id="6" value="" style="sketch=0;outlineConnect=0;fontColor=#232F3E;gradientColor=none;fillColor=#3F8624;strokeColor=none;dashed=0;verticalLabelPosition=bottom;verticalAlign=top;align=center;html=1;fontSize=12;fontStyle=0;aspect=fixed;pointerEvents=1;shape=mxgraph.aws4.iot_thing_temperature_vibration_sensor;" parent="3" vertex="1">
                    <mxGeometry x="30" y="70" width="50" height="50" as="geometry"/>
                </mxCell>
                <mxCell id="9" style="edgeStyle=none;html=1;entryX=0.75;entryY=0;entryDx=0;entryDy=0;strokeColor=#999494;" parent="3" source="7" edge="1">
                    <mxGeometry relative="1" as="geometry">
                        <mxPoint x="126.31999999999994" y="220" as="targetPoint"/>
                    </mxGeometry>
                </mxCell>
                <mxCell id="7" value="" style="sketch=0;outlineConnect=0;fontColor=#232F3E;gradientColor=none;fillColor=#3F8624;strokeColor=none;dashed=0;verticalLabelPosition=bottom;verticalAlign=top;align=center;html=1;fontSize=12;fontStyle=0;aspect=fixed;pointerEvents=1;shape=mxgraph.aws4.iot_thing_temperature_sensor;" parent="3" vertex="1">
                    <mxGeometry x="120" y="70" width="50" height="50" as="geometry"/>
                </mxCell>
                <mxCell id="11" style="edgeStyle=none;html=1;entryX=0;entryY=0.5;entryDx=0;entryDy=0;strokeColor=#999494;" parent="3" target="15" edge="1">
                    <mxGeometry relative="1" as="geometry">
                        <mxPoint x="141.76" y="245" as="sourcePoint"/>
                        <mxPoint x="230" y="243" as="targetPoint"/>
                    </mxGeometry>
                </mxCell>
                <mxCell id="15" value="" style="shape=image;verticalLabelPosition=bottom;labelBackgroundColor=default;verticalAlign=top;aspect=fixed;imageAspect=0;image=data:image/png,iVBORw0KGgoAAAANSUhEUgAAAYsAAADKCAYAAABUk2z2AAAABHNCSVQICAgIfAhkiAAAABl0RVh0U29mdHdhcmUAZ25vbWUtc2NyZWVuc2hvdO8Dvz4AAAAmdEVYdENyZWF0aW9uIFRpbWUAcXVpIDI5IGZldiAyMDI0IDEzOjM2OjAwjiCkAgAAIABJREFUeJzsvfmvJNd15/k590ZEZr59q53FKhZJcRdFkaIWj7V6kT2enkbD04AHDTQEjIFpD/w/GMYAM7+OBzPoHtjT3ZbcLXdbbXtMtWRZskiJ1EJKFMniXlWsfXn7nlvEvWd+uDcy8y1VxVXFIuNDJOu93CIy3nv33LN9j6iqUlFRUVGBxv9KJP637UlvDbn+U24GzI0+gYqKioqK9z/JjT6BioqKipuK7Z7Cdk/jA+JJbKcyFhUVFR84yvVb0PidsGUV7z+h920Vj782lbGoqKj4ABGWfS0j7KoIDsRyNcugAh7wKIJuMStvKoexiyfh8b2vzQck2v/B+BQVFRUVKKgH9Rh8XPSVsMxJz4wE06C9l6B9o6DX8S+u9zhsNRQfJCrPoqKi4gOCAi4aDBAxqCRbfAXpGQvDoEtgUIQiPtP2nrkbH1RjcD0qY1FRUfEBwgAe1BGMh0XFBCOgHtEOUIAmQApiY1ipDEEFA1LlL3ZSGYuKiooPBIqh8CBqsSZBRBERxBWQt4EuJG2wBZCCr4HWwWSggpcERbFyda/iw0xlLCoqKj4QKODUkBgJSe2iA+IRzenMnmX98ilWF0/TbS2TJnWGhvYwNnMrwweOYSb3Y2rDqCT0q6cqBqmMRUVFxQeG1JbLvAPThYU3WHzlaZZPvUi+fInW+iy4Jiat0bZD5PVpVqYPM3L0fsbvehiz9wiaDAPpjf0g70OkkvuoqKi4WdjR/6bl/0p/QNCijZgWnXPPs/Tz77D22k8x61dIik0K3wbxZAgZFq912nYUnTzM2EceZuKhz5MduR81IyBpvwT3bbJrqe1NSuVZVFRU3BSEOqayeDUswBZF1IdwU6iBRYo1OmeeZu7p/4+NN54nac0z7FpkvoNDKdQgqlgcFgV1dJa6rL+4RtFaZLKzQuP2R9BkGjW1gcVeBs6kz7WMgSA7GgAHP8/ur3l/UhmLioqKmwZBUQTPwKKqEr2LAnwOS2dZ/cW36Zx4kqyzRoYj1TaJFhgsg30X4LF0qbuCYq1F87V1RNtkjQbm1k8imoKUzy/Lb2FwqX+7nsO1QjrvR4NRGYuKioqbghBtEiyC9FbTsis7AQpozTH73D+wcepZRopNwKE+eB0qHlXbK5Ttv6/H4hE8vrXA5slnWRiZYd/ErcjYrajUcANLZVlq+2Gj6uCuqKi4aRAviAeDj410AAJqwDk2Tj3LymtPYdZnSbpdrAPR0M/tRVC5RvhHPZnvYDZnWXjlaa489wR0llFf4Lc06X34DAVUxqKiouJmIspzCC4GowYeWF9k9dVnSFbOUyua+KKLurLRzuDFohhETOi/2HYzAhZPTbvY1fMsPv+PrJ56FhEfgleqIcxVGYuKioqK9zmhFTt+Ey2HB3yXjfOv0r5yCtteQbQLRsBE3ScxeBK0Jyi4+00QLJ6G2yCZf42lF59EWksY3w5VVu/LbMIvh8pYVFRU3DyIgimFAAVVCbv9fIH5N56lvTKLOocXS2EthSGGniyqafh3QLh8601QMYAhVUfSWaV78RXWXv8xuGXw3Zjs3s6HQ+C8MhYVFRU3B6JgXEhUl9VJQmi+WzvLxqUX8a11IMWZlMIYvEQtWTUoSTAWwtVvpcEQSCjwy+dYev57yNIbWOPCaWy77WC7FfqAUBmLioqKm4S+vLhicBhUgMRTXH4du3yOrGiSoBgVjJYtcQMrd6yout4xJB6h1l3FXXiB5eefQLSNFY8oiErv3wFL84EyDtupjEVFRcVNRV8jtpxDkbNx6SRD7WWGtE3qCxKvJB6sDw6JlK+Q+KpdPQsF8RiCYq1BSbWDrF5g/pWf0J49CdoB78FL//YB9SS2UxmLioqKm4rQlBe7HXwBRZP1+Yskrk0ioV/CoBjV4AH0AkY7V/Pd1vi+GRJwOdJeI105z9LPvgPNy6DdLc/c3UDsnhV5c7f3J5WxqKiouImQqNcUwkuWDrK5RHNlEe/ygQBTXxQkGIx4b/QiymdcfZkucyKGzChJc57miadon/gRaBNEUQPehBaPnaepO283ucGojEVFRcVNQmkoTPzOIZpTLFyC7ib4AlR3r4rtvUOgZzS23KR3jJDkNlhjqKUJNd8iWz7D0rPfRVfPg7bxaIhCxdcPGqIPIpWxqKiouCnQciHv9W178B2ac+dJik4YhhoSFKjIlhux8Y5dmvH6NyCOYkUs4enhWIkW1Is18kuvsP7CE1AsIRrGsKIexVMIFG/BYNxsdqUyFhUVFTcFvV6I3j0OtE17ZR7rC8w7XM0UwYmlMClebC96pBqOadSjm4tcfOFxurMvY2QTS4EhBynwQMH1gkhbujq2GYxrFuTecCpjUVFRcVPRW4xVwbdpLs9iNUr9Kahq77bzxdvzAoOLs4RmPknwmF6i24vFkVFIinU5ZuEk8z/6O+guIsVaTHh7PNczFOUz+iXAg1q2+i4Yiqsff+txd95/fSpjUVFRcVOwfaoECuQt8vVFpOhse7B8St84qDogB7qoOlRBvaDaz1KLhioqo4M+TDAiYEhwDPlNVs8cZ/PEL6C5EgyQWoyGtr9rorDVaFxlsX6bOe+eOSi/KL9RDxo+O1rQK+PS8KRBw3q1eXiVsaioqLgpCHKAg8ZCYW2JpL1G0dpEfbnIDayU6tF4QzxIjkoHjOIloSBBCTIgAAZH6gusFoj6HXLmeI92O2SddU4/+R18dw28UHiDzQtS7zDxuDtvxHOKp6jae/ctPsV2I+EHPo4O2IAtD5bNhOGzeufRooCiC0ULuivQWYLOAnSXoGjiXRfv2+Bz1Pn4/orzuqttquZZVFRU3DSUBiMsZh4/exHTWkddfo2ehwFUURKyPUcozASthQVssQ4Swkim7OLQstx1cO4FqPcUeRdJ1mDuJKu/eIKJLxzBdzt49RhbC5P7dsX3zgE06ExtPUT/Q5afRbfdN/hR4s3gCfkbh6jDugI6TbS7Qbe5StFaQ1dmg7ii5CAp0tiHjE+TjjRAhjEjh9FcKIySJHbXYFhlLCoqKm4ifFSGFURz2otXoNtCvY+RpK25CinLYYXwrzO4ZJjszs+QTR6h+8zj6NxLIDlOYuWtluNQByfjBYwxNGo1nG+jrctcfuFxRu56hHTmHlxtAm9N37PYQWwMlK15ksFZez1nQvrVvFI+0PNCorcUX+E1R/ImvrtG0VnFr89iLr5KMXuWhUvnWV28QtFZw2geu9MN1oySjU4zceR2ho5+jPodX0BGDoHNUDyK2RF2qoxFRUXFTYSA94iREIPvbkLRibv5wU7tq7zWZCSNacz4rYzc899QrG6yunQGcR28OEQ1hPgH3kL6Y/lQ78nzDtamjDQs6+uXufjUYxz9b/dhhiaj72DoeRHbj799z16+t5Z95hpeKdKXYlcAR+k94FpIsQF5nNnR2qA7d4GNK+dYvHCC7vxZso05Mt/EeMe4FlhyRAuMxliWWyYvFljYuMDySy9wx6c2mPzYl0gP3E6hKVayHedaGYuKioqbCAGvIf+gXVYXLqGd9Sg8XvZU9PfEW+t+BCcZ6dAUduIQTB5h6Mj9bJ5+lo2L6yS+wGoIRg0y6KlY8QynYX9e5B2MX6L7xo8p3riX5MEDGIYGGvx2Y/t+Pb63RG/Eu+DRiIB4JBwJfBdfdHD5JrpxGa68Tvfca2wuXKC7usjawpVQxqvKsHoS9STeYdVj8FgF6230YTwqDuNaFOKZEs/sE39OPnuK/f/d/0Sy5yME02C3nGllLCoqKm4Oyvi+aChX3Vyms7qAdV0Se70Xg4qhEEttdIykMQyk1I/cS/3uT7E6f56kcxl1eWjq69kH6XkW0gv8hO+Nemq+Dd1lzv7wm9x256cxtYOQ7NyVB8xV7vexQinkHox0wDXRziaus4l2m/j1JTYunWPhwmna86cxaxdIOiskeZMajmlcsKMSsjqC6cmcWK8kqrHSi/j5PAkFmTcY2WBMOiy9/jSjrz3E6MheZGg6Gt3++VbGoqKi4ubBu7DmFjmsLdJdX6KhOSbO18aXwoE7UQxFkmAnJ0iH6+G97BhTtz2CzJ5l45V/IPNFSG4PGIkSIYgLhml7oXLK+g6bqws03VmWfvz3zHzp96JRq+16Brt8IHA5+C7qCrzbRDuXYfENOhdOsXrxLCtXztNZX8QUTWzRpuY6ZOQkvQ7zMINDohfRC4GZ/uf2fqdPYwCrBYohTVOkm3P+pZ/zkfseJa2Pgt1q9CpjUVFRcfPgNeiOawu/sYz4Ioaf4pb5GikLFUNuariRKaiPAAYak9hbH6C+eJbVsy+wurnOSGZJUYyGYUehQW/gFAhJ7LA4A0WbpL3I+ae/xdTHH8aM3w22ETyFMryE9jPV6sAXwYvRLqpdWJpl9dxpVi+dYO3ccVg5T+paGN8lcx2GfJeUAiuOxHiMRiMgFj9QNSWxP6TMmAxqYaEGX6ZINImFtmEY1GaryejYOJfmz+G6q6TkO65fZSwqKipuHoyEpLa0uHzmFfLCUTMpSB4jVBZzlXSBSoImw+jYQRiZAVMHErB1Ru5+hObaRS58f4OkWCOlTUoBCLmYmBEpw1FB71YkaFXVU8Hka2TLr3LlG/8PB//F/wYpBAPhQrmqdkCKsIwX6+ilU2yeeZ32wiU2F87TWZnDrS9hiiYjvhPkS/AYjXLrEkp6QVGveNVQtSQOIyaci/ZNhN3hFYGPRsZj8DalMAmFSVCBpA7N7jp2aBjRZjBopShjpDIWFRUVNwel1yAKtMmby4gWA2qx27WWtmMwtTFsfTLs/E0CkoCvQ20Pw7d9nJFzb9A8+TPqviBVg+m5KWVPRL/KqfQ4UmswFBTtJZZP/JwDp59Dbn8UNldgLIXWKtpZx89fYPH8KVbPn6C9dJl8bQHT3aCuLeraIfNdEnWxCMrEvImGUNOgRK6E4taSfn5lMNC09UqUZx08C9Mrzy0rt8S1MYkyNFpH7O5XsTIWFRUVNw3OFdjEQKfL5uocie/2dtzXw2OxQ5PYoUnC1l+Cp2JqkBxg+I5fZXJzk7XLF2iud8msI9EiyIFcB2sTlIKks8prf/dvuOt3W0hzlebjL7O2cInFhStsbixiNCcTh9WCYXVB00pzEnUYEcDGlop+On1nya2ytcd6N02pa5tNwYd8hRDUc4t1EmtJp/ZhapNgsh0VXZWxqKiouGlwXjHikKKFay6TFh3Eu7jjL2Vid686UhFMfRhTGwsexQBdD65IGZ46wtiR+1l/eYm6FtSlg8b8RH8nvjuJTWgYR3vpJK//+/89GBrXwWrBhPGM0SXP2yTWYKU/GFZEw7qsoBp9GRmsvZJtC/dOY7EjGX/V0l0wCkYLgiYUgMc5T2ESaqN7IRsFs7O8rDIWFRUVNw1ZrQ6dZZg/i2wskvguNs6T6IuA7L5YOpTR6RlGxqeBtCe34QBvBJM1SA/ey/THvsDaxTdYm18nzRJMb4zqtfEIVjyZ30DbTbwWod8BMBRYPJl6xHd7ZbhlE1/Zm60SEteBMry2CzsEE6/zhMHzlNB3YaJ34cTQMQ3a6QS3fvTT4FPU29D4OEBlLCoqKm4K+u1yAssLpPkm1nejmqpHRZHYSFbG8VWDvIYRQayQjIxh62Mh9GSSXpFST9jDpEzuO0pxzyPMbVxCZA3tFgguTM9DY2nt1c/S0kGR0BCnQaLQlJVTaAgxyaBvsJtA1Du4TtsdEfEMzn4tDQUa9LCcSek0xpm58xGSqcOYoWkw6Y73rYxFRUXF+4ft63Bc9LZkJVLL+uxFTDfIWZTPCAluG76WMB8iL7qICFmWkWQJdnQMGkNgDPi4axdISwFBY2D6Fibu/Tj+4nN0Lhwn27KQX0tOpDRnwV9Q8XgMVkOTXLATihNwplSc1dA8FxVupadGe7ULcj2EkJaPcoviMKVeuRqQUGFVKokYga6ps1E7yLHf+D3M2D7U7C4kWEmUV1RUvD+4yvyGHelrY2gtL2HzDgYXhPUGZTMGcN7h1OGMwScZmtRCs5kkOAdFEd8yiIEAArZBdugjND72WTYZwUmKEgYiXWtAkcQdu4kdDKEPo6BUtA0hJsGJwYnFSRL6HOLMb40d3tLzDDQIJO7iyZSjYAe/Jx6jN1ZJyqu3TadKPD56SrnUaJoR7v7cf082dgSnKU6ldy6DVJ5FRUXF+4C4oPXKROkbjfitlP9bWaJ55QojYhAJPcsYF5PbMcqvoUGvUauhAoUk1Cb2Uh+bDpU+CGL7foIf7KSQBKnPMHbHZ3CPzjL31H9hIoEiz0msQWN4qaS/UCsqYddu1MdTEDwF2GBCgmCgYMrw10DZa1kda+NJOe9xqhSFQ0QwNuz4rTHYwRmyAoXzPUPhoz6WxBibDhzHm6hYm+d0VchHRxk99jGG7/oULpnCmxSRdNfAWOVZVFRUvH/QbW4F9IxGiNw42FiGVovMgVETRffirjw+r1yIRT1iLLkkJCNTZMOTIAkexYuLTXMuHiLu7tWAGcZMHaNx16fI9h6jTY0syyDvBuXWXRDKSiPFoljVvrehHlEXy3xDc5xsyZeE7mtUEa8hx6GKNYJNUjRtUCTDdOwwLW/pOt8zIM71JcuV0tZK72vtGdtwDoqnqUpnaAJ7y/3s/7V/jpk+TGFG8NIgzPvbaRoqY1FRUfH+YXC7PdiH1ltR27B6BSnaOB88CeMlJnBtzA2YuINXXBHKQ50kmLFpzPAYKoKPEhyDieCQtQgSGkoKyTD1g3cx8dAXWdM63jka6VXrk2IAyuKx4FPEpxhvsd6Qekh9UCoxGtVxy3S9BmkRS4H1XaRoIUWbhILEWpL6MEUywpqdRKdvZ+qeRxg/egdiDN77eKmioYQ4EjaEv4IB0Xh2Bal2MCh5fYzO1FH2/5P/mezQxyEZIxNDgsFQqtNupQpDVVRUvD/YkkfW3pa4V8Hpu8AGujmLc12chhJQyv4HpRdMCrIW4J1DVehKDT86hdSH8deqZpJQAmsQ0BQzup/huz/N5OmXKd54kk57DWOzq7y43HsPhKhiwrpn/4SY0NaQhNcYC4vZEI3d2R4LyRCajTA8c4j9t9wO+49gJyfJVs/R/cX38d7jnSPPc5IkiZcveCXBUGjvVEK+RBE1dGyDlXQv9/3OvyTbdw8ke6LRDV6a7rQTQGUsKioq3hcMLrTlLVY6xfJXTBvac2zOn8GQRxkMDeKCSKyACk1tIg6DkmY1ujbDDk9ix/dCWme3JrbthLomCwyRTd/O+Cd+nQunn2OYdWr0+qy3fgLtZz4khoJ8PH1vLSbmGrxrgXc4LI6U3GR4W0OSGpoMM7L3CFMHbyfdewRGpknqwyRjI0gK/sopNk6dZvPyZYwL18fafgNd0FN0sT9R4+JvkMSAqbGy2aHVOMgdX/wXDN32K2BHCYmNmNAuP9Yul6cyFhUVFTecgb04ZcqZOLmuP6J0E5ImS5dO4LobeA1loUYUsKBlVVEpuudD8heLHZogGZoI/RXX62mIG/LcCFZSkvokIwfvZe+9n+HKz75NQge7iyprOPtw7LCTtzgMhbGopBBF+5wJyW5na7h0iOGZQwxPH6S+9xAyc5h04jDp2MHQ75DUowVowuxrrL3yIosnXyVtt8jiiW41fLEzXMoQHXgDuSqtQmgNHeTYr/wzRj7221A/HK6F7xcEUP6zS4a7MhYVFRU3nF3S2mH3LgVoEWZPFOtw8RVWZt9gmC7OO9IYUjJK37MQRTXs7r16HJANj5MMTe6Y0TBI6HkIJ+Ki3IYXQU2KHTvI8ENfwp49SbFykkyvZiwcImGAkqOGswldUyM3NXIyOpIxtucwwzOHGNl/GLvnIOnYDGl9FFMfQ2qjkI6CHYqSJBo+98plVl/8MfMv/QTdmCcTH6eRD+ZQgqEor6VBsQreKZuuoDuyjz0P/Dqjn/wnMHYEqEVDQW8uUy81VHkWFRUV7w5X6Z7bcv9ui/Lu+QIp+xy0AOJN87DFXb3M0vmzbMyepHniCZL2Co3M4jtRI6l3GI+oxG6I4F84D6qWdGgCWx8HqTE4dnUnYQkOSd6wlhZeSNIRarfcz76HP8/s45dIfSdUOBGqknqJcQGo4UXoSp22bVCfOcTo9H6G9h1Gp2+hNn4L6dA02fAU0hgNneRYMCkqGQUJzgvGexLfxGxcZPn4D5l/7nHc0llS34Is9H0YAcrzKD0yQlVVqCyzOFMnb4zTOPYIez79T2HiNtBarFaWLT+mvihjPwFfUhmLioqKN0cvnl0uSp4Q57YD95cid7sbCuk1iMUOY3XgHJIk4DdDtVNnCZ27yPqFU7SW53ArV2guXKLYWMStX6au7SDqJ0oR1zovYaHLtItF8QiFGIwkICn1iQNkQ3uArZ6FDHwuGfy/epIy/wEIFju0h9F7HmXz3HNsnHuepNjEqoamubTGemHpmmHGp29lYu+tTBy4BdcYJd17iHRkgmxkAmmMhzkaUkOljkqKaB6uQ+zGMwjee0Q8kq8x/9JTLPz8O5jlM9RsjjVlfkZAPaZc7weMhnrFOcUnNVqNvcjRT3Lw1/4l6b67cb6OHZSf2nIxyh4X2fF4ZSwqKireImXyeWAHqjHXIC5mHaR3C0joM/DdmIPwYYEsvYdWBz97mo1Lr9GcP0v7yllYW4DNBWx3nVrepO4KvMR8gIYktYtlRopi1WMJwoJIhmiCNQkiGXZ0DyYbR72lv1KWZ7YTKauKiCEZY8E0SPccZfyhz3Nh7gpZdxm6TSamJhidOcToniP40cPU991NY3Q/6fhEmMfdGMablFyCpGCicdae1CCKc0jMr4h4BEdiFePWWT39M5aOPwGLJ6n5DYzxgMWL9ENOMZIkZVOiD9fHmwxXm8QeuIdbPvXPyPbcR2GGQqWXXOWDX/2BylhUVFRcm14+QRjwGaQXshBxlAnpcpsuoeK/17sQ0r0+lL8WbfAt6KziZ8+yPnuO1ctnYGUW3Zhnc3kO32kyWrOYfBPr2iSEyW0uimmU3c46eJba9wN6gS1JsLVRTGMsLNxvobVsSz9FnDUh9T007vwce1dzbHuJRioM3XqUen2EbGw/1KdgaAZ82r9o2Jh/SML34uKMjL4hRZI429sGb0FbdE7/lJWffAN/4TnqbgOreS/9L/GrXuOdhqbCUDIbvKpuOk4+eYxbHv0yQ7ffT+7ApG/y81c5i4qKireKDvxbmoK+/mu8t8wMl/OmKWLsP+yAUYfkTVidpTN3jpUrZ+gsXcAuXySfP09n5TJWu6RWqHU7GFGy3IY51b5Ay9BLL/O6PfcRwl9OQmNeMCiGrhOykQmytB7O2byTPmQDZgg7fhu3PPpPMW6TLLXQaICtA3XA4vEYE5oEw7VyGDWklAu9if+PV1OEsBSHcJ64Fq2Lx1l6+jG6J35EvbtClto4X7uUTCReixAG82jPoDkMbc1g4gh7H/5Nhu/6JGQjJN2QgFd2zqp4M1TGoqKi4pr0979x566lsTBhoVJFDIgYhAK0A+RAB2mt4hcu01mepbN4ifblN/CrC2wsz1M010h8B1u0SbVLSk7iCuoS4/cuLoZRNE8H9vqyLTEb7jR4NRSiveeqzRia2EM2PBbui70HZa7iOkW0O66EYhFrycYPYaQIW3pXgKkTZDIAnwejVCbS1fRLUhn0fvp1S2VoT/JN8ovHWf/Ft9k89SxJvknNKIkWvRPuybDHN/WqOA3qtSbJQmI9meKWBz7L5ENfhPoMYDFJyDWJ7D4c6npUxqKiouKa9JLAQox39OPaqiHJihaIdkN4qb2Krs/TXDzH5qUT5FdOky9dhLV5/PoCiS9oiKA6kKiNZa/Gh1Y1URsn04H2vIG+/PeutZ1iyvQuoj6U0SYZ6egkdmgMb+wWN+mtLpeD+RfExrCPIkno3SjT/mLSMvUfnx5k07eEtUoNLImfSx3imrBwio3j36P16hMkm3OkaUizi+b0/RIfK7XitTMGSPAqdNVSNKYZv/PTjD/0JRg7jGotGFfT+yFSGYuKior3BB1cJ8usKg4jDtwmrM9RLJ+ns3SeztIV8qU5mgsXaC5cRLrrJEWTunapuy5GXchlSKmlFAT8QoglQcVgpAzSRFHwmNC9WhCqfKaT8D42Jn0LNfjGKNSGERPmbuvbMBThowePpa8UK1uM1vZiU93yyn7a35RS6PEV6kNSm3yZ5VefZPXlJ5DlM9QoEAklshKbDqOJjgYj5oMkeBSekIQfPXoP449+GTNzJyoNvJqeLxLO9+18+spYVFRU9OjvOLd+pT3jQJywhuawvkhn6TLrC6fJ50+hc6fQ5UsUmysUnRb4goY6jHdhrKj3oKUekkbBu9IXCHF4F5O8ZVey1TBfuwzhGACRUggE4v1hZdY4ScKgRsglo02NojERjYVF1dAv333r10cG5vVtu1BBRVa2PlTefDQYZcpfysQ3HuiCW2PtxE+Zf/572PmTjNIEYymiIfUx4xGuQYH0hBDDAZ0aXDJEduAOpj/9W9hbHwQ7hqrtSY/027IrY1FRUfG2KYMoZUsbFM6Ffb8vEJODtGB1jtb8ZZrLc7j58+RzZ2gunKPYmCXtrlPzOSlKoj7IORmL1wL1DikH+WwLIZUSGV60N5OhJ2EhpZcQFkdXOJJajcQkOBfKdK2AqKNwDq+CtxltLO1kFJm+DTtxCOwwxF14r8x3F3bNhfQMwu6vYfChQeMx8LDtmTpBfTgND4h2kXyOzTeeYfapv0Uvn6JOWX6s0Sj0UuG9A5WzKuKzKCTDTRxh+uHfwd7+K5BMAjXE67ZZ2m/PUEBlLCoqKoDBPXC/Ya5AJQdtoYsXWb38Ot0Lr7Bx4Q06S1eQ5jJZvk7dbZJoNy5D/Uob9Yq6kAQWtLfDLectbCX4BFoGbKJWkS+H+KhD0CDfEQcI5YWSpRlY8N7RdZ6OaWBH99GYOkRt+gj1Q/czfOhu1DbwoXMvzOO+6nW4xs5bruKRXMOG7Hw3ofAGsQbIwa3ROvczlp6q8eF7AAAgAElEQVT5O4rzx6nnmxiJHlaM/YmUY1rDwYwIVsIci8IruUlJZo4y9shvMXLfr+PsXkwM671bhgIqY1FRUVGiAC40hmmBoQnrc6xdeIXOyedZOnmcYuUKkjfJyMm0S+raJBrzEGJj09xgZqFfcAtcfR1GY2mow0uc9kYwCsERkLDfzmp01eILUFPHmTreZKFDemIfyfhBsr1HmTh4O8nkQWRkH1qfxEtG4WM/3tteM9/ZYtsL7Eksp3XrdC6/ysLPv09+4TVGpY33bbx4jJWYYtCtly9YAFQMDkdBgo4dYvyjX2TsY19E69NA+g7Pc3cqY1FRUTGAC41zbpPmuRfpnvoFS6/8mGL+PNLcpIEnNRLCU+rCDARSfFxKyvzB1WYi7CCGbfrjK8KsB9MbdGpRLIWxFJKQm2Fyb0nrDeqjU9jxvfjRGRp7b2P8wB0ke47BaJAi19xDMoSTBOeJ5b39qqarDTG6Ou/QWMTPakXBbeIXTzD38++wceo4I+0Naji6ZYNjmZLWfl4iOBZCt/Bh8FNSx4ztYfSuTzF23+fRdAZ1EBTL317F07WojEVFRQVhxTahZ6C7SOvccyz+6Jt0zr+EbS0y6ruoLxCvWGNjdVIUnNAYtupN+Nm+CF9t0Qpx9zDjQekUDskyCMLeIaluBGczOtTpZuM09txOY3ia+sw+hsZnGD14G2ZyHwyNgzQgjTLkIkitnyPAhNxGPypzrbqq3S/PO0KDXpNYxRTrsHGB5eOPs/ryUzTW58noor6NtX6g5muXtwG63tD2CenwASbufISxBz4Pk0fADsfO8LdqBN8clbGoqKgYIKd78SUWvv+XFGefZai7HMJDakiQsNj6IgzUkdCh3FO1oAw6xTJREXbJZ29BJMyY9gidwlFIHYAaOWIgaYzSmDqImThMOn4r+25/iMbUEWTqAGrrUak1lpT2+txyIOmViSaGLfVP23MI1+XdMBS9BHgXmpdYfeUJ5n7+DwytX2TIdTHeoVIQWzeuemAVg2YNqE2THn2YkU/8DsmRj0E6hkgtauW+Gye9k8pYVFRUEET9OujGLAvPfI/muZcY7SxT820Kk+LFxlaw0oPw0UiE1U0ZNApvdqESRAyqHmsT0qFhVmQIOzJJMjpGbWSM2vQBpg8dwx65G0b3gxkDMxyVWxO8hLGkJpb2Slm11KteCsGsnSIf783ueyfRozCx18K32Dj7LJee+i9kc68zLl2Avt7VjpT41nCSx+Drk9SOPMjYx79E7chDkE0S8hSDDXdVGKqiouK9QHPoLrHy7D+ydPJ5Gt2NkDcQiyOhkBSRoMQqQdYUIz7Oe4ZyceqP4+mHeXobfiROsoujPsXgY7I2rQ9RnzjIxN67qO+5jckDtzE0fQA7dRBMFrqU1QA1MGnPawiTVUvNqG16VQO3gaj/u89V31bRqFyr6hEK1i68zpUf/R3J3MtMaYfMQ1cshdnagRGuZHwtoQ1PxdA1NZi6lcmPf4nxuz6J93XEJ4ix2z7z2++nuBqVsaioqAjGYuUiZ37xJPXmEnUDojZUIInFSFyGelGO2EpX9nqhsbS0XLSl13WNK0DAmRotqZObGlIbIhsaIxubJhmZZHTfIRoHb+fAsQchGQt9EaaBmuG49PnQchfVWktRvUFkl6+2fchdn33dS3Odx69+NAnVTOKANp3ZE5z5/n8imT3BqGuB83QKxWcCxkYfqDxiv4pMxdLVhK4Zwk8eYeqBzzJx+yN4RvCmhhG7y2evwlAVFRXvBerwc+eptZaouTYJipKhElrCjPpenf/WsEjsqi51m6TsVxaMEfCe3OdIkqKNcdzQAfzwHhp7DzNx6HamDn8EJvfD6B4wGeokTI6TFEgpekc0CIak15fW9xW29Mvt/Gb7B73O41d/9tXYEjQauDzhSwfFGn79ArNPfp3i9A8Ybi+TJQ288ZBISMYjYTTsliMHg+MwtKROMXYr+x/5LWY+/hswvA8jDcwWBdl3r6diNypjUVFRAXg2L58j6a6T+Dzu5G1PgSiERNzur+x1RSeU2keGAuegIMGO7yfde5j6gXuYOXg/9b23wZ6DMDQJphE8CMIgILXaMw7QF8SAGGTavnrvKLz6ZeUidrLF86K0W11ozbL2k/9K641nGOrOU/MF4iVoOcXn95Q4tPdOICGh3SXDjh9k78e/wNRHvwAjB0GCHPpO3qNQG5WxqKioAFBldWkO8m7QY8IHkT8JUuRhf1tqIw3uzPuNZl4SEMg05DKcCtIYo3HkAer3fxZ77CGS4f1ghkJ5q8liHsJQqkOV8Xp6X2svExFPdMtx3zrvfix/sNJq0JYlgHbWaT73fc498y3GzApEtaddz0zLfIunHGLkSJDhaWbufpjJB38VZo6Cxtkcv2QqY1FRUQFAlmY0iclir7FZrp+XuFYJbKBMZpdLpqHb7dK8fBnrnmdoscXokbtI9x0lHZ4JOQ61oaIqGoxSjXzLoVQGDr6lg+99idLf8+vKAq/99B+pN2fx0iTDYfTqBisYxzBy1mHxxjK0/xjD93wapo8AWUjwv4cexNWojEVFRQVg2HvoKMsv1NEiwxVdVELlk1EfBO0MVw3zhLFAYfSpoEFWW4RUc/zaFVqbq6yeeZa5Z4aZvuV2Ju/4KHLwzjBEaHQ/ko0jXhBJ6c331tgoKOXEudJoyI1YK98UAhhf7vs9JqtRrycMNRIyZ2hvbGBMhikHJUFfNBEADbPKpehVQZn9R0n2HQOXhGR52u/w/mVSGYuKioqwKE/txY5O4fJljAlS3tZ7LDlC2Om63qjQXd5iIESlcUqcUUdKB+Mcw2KwnTU2T8xx5cRzpDNHOXTfpxk+fDdm322k9RHIGuFcTAqSxNi8oRwF+j61ET1ENeoNxuBU1mDvsTtZb50l32hTqw9jCt0auxooGlAGy4BDQG799AmyW15n/IEDkKTciBAUVMaioqICgAQO30nemMSbBjZpkxabWO1S0w5CQVfqqDFR5K9Pv69h21LeCxV5wJOIJxNQ7YDP0ZUzXPnpIu65JxiePsDBux/CHHsAOzSJbYyF5HeagmTkhCXy6gtWufreWHMSJMWLaDMTSIeZefhzXD79Ao1uC7rdXtlv/0yjN9YbHZsgMV9k1NG+9BrrJ37M6KHbMFMjkNUHjvjuN99dDftHf/RHf/RLOVJFRcX7GAfNdYYtLFx4g2JzBUsRfAnNMVJ2bg+Gg2Lye0sJUCgDFe3vjhETnu4KfN7BeEdiQHwXW7TI8hYbs+dYOP0qiy8fxy7Pk9HCaQdbs2AVK0kU3VaC2NPWY76Vctjr8/beQ8tOCSV85ngvY0Owuc7a+dMk3VZIcIviYxFZKYSrUt4kemahTyWzGozM+EGyQx8JxmSLwd7e8f32P8O1qIzFO6J0u9/uDW70TqiiAgi/hmmNdN8+1i6dJd9YwhftmGgFk6ZYLbC+Cyp4taH6CYNRgjGJDXkaE9ZB6Mgw2NdtoqaUIYyENuoxPqcuBUOuw3Bzic6lE1x55SdcfPEpZtIumnkkU4RiIGdhgtHQMqRTSo6Ue/Z3ctt6Wd7szSB4ETrG4IwhkSjqZ8cY2bOXpVd+gV9fiJ9DcQa8hOyD1dC8543Di0XFxt4LT4LivGKGp2jsOYSp1/EmSLaX/wViJdV71MFdGYt3xDut6X73f6AVFW8PCc1wrsvU0cNcOX0KyTdpZJaNZgvnHEksYy0kwZkUlaS3g5YoDiVSJqX7yejegipbF+Sy8icIijgyn1N3XWraJqGJ8U0WLpxi9pXnyFbmyfINaAjSXQ2JXmvDOQM9w3T9kq33FAXy+G+qGq+LgazOcGeFtctnkW6TRIvoiXgSFYxKnBJYJvRNvD7hmud5TnOjjR2fpH7oVtTUUbI45GigUqy86btfBFAZi3dEZSwqPiiEUleswNAk+245xNLFM/jWGsP1DFTD0i4phckoJN0SKumN+eytW2/u91p6mn+lZpTgRcEUpBQkvoPZXGTzwgnmjv+E9ivPMuI2kLEUpAtGgy6SyRDM++LPyQIpitEuoCFZ322T7plg/sSrJGtzNIoWVn30sKJ3oBkSBxcZHOW8DUHxRUFzYwVJEkYP3o4Mh8a8UiJEVIlTo/qGojIW7yfehrHwGnYaQGUsKt4/lF3DSU/LaebgAeYvX6K5sYYvipCHEBvKYikDTYoZ8Cq0l894c/SeGXMiKoo3AB5RSNRTt9BdW2IshfbiLCsXTrN48hWa85fQvIuQYOvjiElv+J9TKJ11GM37uRVjQ7jM5TTyNu1LZ0ja66HUmOh7iYWY2BY8iAsGAAFVksRQT8E1N6Gxh/qt9yO2UZrpUB/lZbd+yXeNyli8GRTU+57zPPAbDijq4mOxmSlIEpdx2xit9Z680w3iasaE99x2mBvtQld8mCmX/ygImGYwNsXMrcfIN5oszV4hM55MPEZzktDfjYjGUs9+2Olai5REoyK9kNXgLUpcGFBJUEkpyCh8htSGyQtHpkpNPEKLlcXLnD5znr0HDlObOowkNfoat/3j/XIpZVFiF6MxMSxnIEvJ9u1h/dTL1PJNim6bLA3ekCdUQSkGEYeJ90gMVqkqRnN83oX6BMP7j6G1YbxYxNhtXe5UxuKXjkI5vUVM+Qu9/UnxMVW8c4hNEZTNjQ0EH4bDm6Dbb5M0GhHt/2ENvlNlLCpuIL3UqMT/2SFI64zedQ/7Z/ayvLhKq+PCQr5jeQp/H+X87bf+m+xjBMXHUJRFyfCahmMJiEnQtEaRNdh0ln233cddv/N7NI7cj9QngxAhW4//y/+bKuU6BteLcnqdgFFG3AZXzp7Eak6iBV5ztKfYK8FY47HqkCjVqNheWGq94+g2Rhk9+hFM0kAk6f/MSpv/HhiLD3GfxbX1JNWHSgsRg3qlKHI2Nzc5deoUx4+/yJnTp7l46RKtdovNjU1arSbOeZLEMj09zb59+7j11iPcf//9PPTQx5iYmAQUsRYRQ390VmUgKt4fmNgP4UkwZdd0fQbJM+S+3+DYkU+w/tpzXH7+KVYvv0aju8wQLdK4qNFbqt86Ya6Fw5eLpo9CgmXFlHRp24wFM4Idu417P/klavd9Cpk6CmYcxJJrmTS/kRiQjH7fhx/4OgFTwz74KO7EL2i/sYFurJHgwPrYZxGS4lYJm031eElxZBSS4UXx+TJ+7jm4fBey/1Go1YCQIC+ivbh66+Tb50NsLK6NGEOe51y6cI6nnnqKxx9/nGeeeYaiKOh0uriiwHnXd6eBbreLtQkmeg/1eh3vPXv27OGjH/0on//8F/i1X/sSk9MzFHmOsUmQca6ouOEMLmoGjyJahHi6GYehaUy2n7EH9zFy9D7chZeZf+lHrJ17DdNZI9MOCd0Yh496UnFDJmiMv4PGnoxr7/ijdIgPad7cJBSmxqYd5bZPf5nxR3+TdPQW8A2QcfLCkCRCnuekiQ0ejuoN89TDVTQDRiteV4nDm2rTHH34c1xYukxrbZ66JFj1eBOMhUHQmPAvQ91ECRUFJG+xevpFmLmDgwc/CuQhdjcw1+K9aNUTVb369voDxU5PwjkHCNYmqLqQkBJDc2Od5194nm/81V/xk5/+lLXVVdbX10NyeuDd/DYxs6tdSmMMaZoyOjrKLbfcwpe//GV+93d/l/0HDsZIl24xOhUVNwa/RYXC7KjZV1AHvoBiA7c5j158naWXf8bymePo2nkauo5RR+4KUIf40LltcYgahKSX4wjDgeiFVxCPWglJ866jUyhN6uj4LbD3Hm771G+Q3P5xzNAMSA3UxtyGRWzYUp8/f552p82hg4doNBo7/qZ+mX9jnr63Fgi9Idpchu4cp//u/6bz+o+odTZJcIg4BIdRDTcKTFT/dWJjtRg4SWglwwzd8SiHv/g/wi0PhFGzZEApzPjux6E+1DkLY0z0AgBVWs0Nnn325/zJn/wJ/+Zf/2uOHz/Owvw8eZ4P1DIHwp/Om/thqCrOOTqdNsvLy7z80ks89aOnSNKMg4cOUa+H9v3KWFTcSPy2zZT2Kv3Lf0OzmJoU7BAmG8FM7aN+251MHLmDWmOEtc0Wy60cb2tgElQ9Jm7EDCBlZ3M0EuWvvGgcKOoVXyheLK4xQXfiMPse/Dz7fv33yA7chwzvAzMCkvaqjEwSdtT/+a/+M3/8x3/MwYMHueOOO7A26kkN/F39Mv/GgpntZU8oA0SS1BEtGE2VxUun6TY3saIkGvouwnUq36PMe5SPhQIa55ROO6dIM0aOHgvGk10EF99FPsRhqP6FVPW8fuJVvvrn/57vfvc7LC+v0Gm3MdZQb2Tk3RynYLdHQ8Vv/f46ssnWJnjvmF+YZ3VtldNn/leef+EFvvKVr3D06NEb6jpXVLw5oh8QE+CCwWYJdu8QYzPHGHr4N1g/9QILLz9NZ+4UWWsRV2yA6yC9HbOnDJjIQLAKVcR7Ws6Qj81g9t/Lsc/9HsnhBzD1UUhHwYeu8d7ZpAmvvPwyX/va1/je977H0uISe/fsYWho6Ib/LZldvgpruYVsjOQjjzJ08hU21peQ9ixG86Dwu13lQbesVmjRRVxOkiwi517Bv/4C5p7PgZHoVbwXGYsPtbFQvHesrC7zxONP8NWv/jnHX3ieVquFeo9NEnA+WHHvabfajAyNvKMjttttvPfh78wmLMzP85/+8i+5dOkSf/iHf8iDDz74Ln22ior3jnLPKiJg62GIUTaGEchGDjE5foiR2+8nP/0crZO/YGP2DO2VOZKiQ+pDBRAawi2h8sngJCH3lmZekEwf4sDDn6f+yG+STd+P6jBkoSxW4vTWkr/42tf4+te/zuuvvY5zjiNHjzIxMdGLGLwfo+ydvENq6xid4tADn+X0pZcpLs1SEx96VtAoXrI7iRGsEZzbYOPia/gTz3Pgrk+GUJRkvFdFMx8aY+G8Q73HGBuTysq5c2f4j//x6zz22GPMzc3SbrcxYSUP81V8KOOzCPVabcd7mm0/lJ1qnFs9DzGEUloELQqSJGFjfY0nf/A4RpQ/+Ff/Cw8+9NAN3xFVVGylzDH0vyuryhXBG4tisXisTTH1SWrZENnYPhp3fYLxxfOsv/QzFl9/gc76HK67jimaoatAEjoqdKXBRjrC9D0Psf/hz5Ed+wQmG4dsHPFBVsR7KPIOqTW8+vLL/Omf/ik/+clPmJ2dJc8LjBH279tLvdZXZX0//i3ZJA0JfzNEeuguRm69l9b6BfzmPMblqNdrGjljwtBZS4HvrpJfeJXOq89Qu/MzUGtcR8F8y5Dat8SHxlhAqHAKfQ7C8ePP8+df/Xd897vfZWVlJZQnD/5ilT+r+EOzZuewkev9Gu72ePnLq/hQ+WAMq6tr/OCJJwDDv/qDP+CjH/1oaMIx5obFWysq+mwVId9SoxObS72Us+4EkQxshtRr2NoEdvQgE3vuYOi+z5CffYnll3/OyqU3SHyOikHrI9Smb+EjD3ya2r2fIqvPQG0fpA3yoiBNMrxC3snZbG7wH772Vb79rW9x7swZNjY28BpyH6rK1NQUtVr23pQDvUvYMvgmCWTD7LnjY5y98Aqu2wFWUV9c8/XlCiLqSXxOa+Ec8689wy3H7kfdBCop70WR5YfGWBgJw9HVe55+5mn+33/7Zzz55A9ZWVlBvYaSu18y3oXmHWst6+sbPPHEE9QbDX7/93+fe++5d8cvfJXTqLgxhLoeGKwnDNPzjIJg8LFUtC8bSJhHoXXUDGHGp2iMHKG2/z5qd/0qo2dfYv7Vl1hZW2fmyJ0cfPAzNPYdhXQYlQxsAzEZTiwJIUXys58/zb/7t3/G8eef5/y5c9Rqtd4OXGK57P4D+6k3Gn1r9p78uQw00L1VlFhGHOdeCKRH76dx5GFaq0u02qsk2o9aqEicf6Hly4M316uOMpjOOu7ci3RP/ILsgUNbTmswthHOuLwwb50PjbEo19inn3mGP/uzP+OHT/6AjY31+FgMDb2DC/l20Kj5Ya1FRGi32/z93/89o6OjfOUrX+G2227bUoVVGYqKG0UpO9FDQxlt39MY9DnKihyDisVrikcw6TDWjJDVZkinb6V+9GH2bzSp7T1MfWwfXlJMlPUuxEZBPsPFK/N84y+/xre/9V859fpJ8jwnSRJUNXo2/U3UzPQear0wlL4H6quxFNbnhP6GgdkavRGw2UA10mA1VP9q9gyZTSCdYua+X+Xi5ZM01y7RkJyEvoGIxVAhrC29zpXgxakno4NfvcTyq8+w79aHkekRiIIhg/SrsypjsQXnHKraW4jVe46/8AJ/8bWv8sMf/JDNzc2orS+9XYhsr2a6zuKs2x7v5zCCPd+qM79zm9OTVujHvGhurPMPf/9tjh45zMz/8M+ZmJigXwq32w+5MiAV7w7by8P76M7fXpEoDx5k7KSsh6W8r/+eIqXXQVCHTQXJagzVpsA5SOsgKVLKjGsYouqKLt/7h+/yF//hP/LKSy+wtLiAFmFxTkwQwnDeUcqke1X27JmmXs+If9C9s3gnBKNU9kIBLsdtzrLw0g9oLc1y8MAhsj37YHIG0mGo7QWN408lwRU51mbRmITz8ZLgCJIm4i3pntsYP3o/83Mnaa57ahQk6jCxO17EU3Z0a7xG8Z1w3tBub7Bx6TTp6z9j6tOHUIYpkFAXNWAz38kV+cAai8GQjXOO02+c5Bvf+Cue/OEPaTU3MWWXZy8CuF1V5s2wPaF91bPZ9V7T0/wP5+u9x3vPlSuX+cuv/yUHDxzgt3/7t6M81YA+1Zs4YkXFW+VaxkLQgZ1q2UQ3qJ7MwNe65fsBZaTw+yspkEQtjxgoUUEkeCu+yLlw4SJf/epXefz73+PUyZO0Wk2Ghob6x++Vk4aNmAJDw0NMTk2Spilvd/e8G977XpXk8FAjVKj6JrX1cyy8/lOunEopkoxkz35G99/G6KH7SCYPwtgE2DqmKMCOArXQ0GhSBOmJkCe2jhgYv+cTzJ99kebmGlabYSASPkzPU+ldw9KrCFMMCyDBaEFr5QoLrz3N1L0fh/E7MGT9n0IpYDvwU3qrfGCNhbW2F89stVo89tg3eeyxx1haWrrBZ7Y74VQlnje88cYpvvGNbzAzs4dHHnkkJuYrKm4EYWnpL/q7hVZ2Pv/q95Rhqm3SywrN5gbf+uY3+eu//mteeOEFNtfXKPIuaZJQ5DnWpFvexRjbi8tPT08zPjGJfZfzj+fPn+dv//Zvuffee/nsZz9LmhlMltLYM013c5H11RUyHH5uhNWzL7Ay9EN0eJL6zAGGpg4wtvdWZOogjM6EPhE7htgGKRKbCg1CnWTqCFN3PIIuXcIsncJQ9MJ/XgyeNAhbY0JUQ0M+w6vH523QZdzcKZZf/hGTn9yLNROgA0u8XrcV7Jp8YI2FiOB9+DX6/ve/zze/+U3m5uYwxmxJir1fCNUc4ZcflG63y9M/fZp777mX228/xvTMnuuGxSoq3hvkml+9WywtLfF//Z//Bz/4wQ84ffo03W4Xg5KmKdZY2p32jteU2mplJVRjaKfExzthbm6Ov/mbv+Gxxx5jdHQUjMGLYLIGOr3v/2fvzeP9qsp7//dae3+HM88nJyORDCQhCAhRZFBQEYGoDILWllFRWutt623t7bW91fu71dvWavuitWqxCnhlHmUqIIRRAoEQQkhyMp5zkjMP3zN+h733Wr8/1t77O54xQSDkyWvnTN+99tprr/2Mn+d5SKU9qnSKKjJ446Okxw7gaImOVOCWVTEcr6G/dgFUN1M+byF1jUuItxyHqJ6HFTEFAFF+CfNIGfUrT2Ji3yu4g3uNFSGMezzXqjDBbYkHCKFMzopysDJjOAMdjO7eTN2KExGNq4AKUzcKwkc2V5vriBUWYDSgXa2tPPTgg+zds8cXFIYpT49lMDab1hohjcvKtiN+/ShBJpMB6de28es6SSHwXI+MkyYajRYgmQvsQCjSrKQfvwggswsXLWTJMceY64YBs3dektFROkpzI0GQZedmHPbu2cN9993HwMAAYCorBC+pUipbmieXtBEYnlI0NTQQixbnQ82JNAwMDPDwgw9x9513MT4+TmJoyKAmlQYRR1Y2UVHbhJXuw/JSQJqoVtgqinbBG0ujxxKkB3rw7DjOnirSVfWIqibi9S1UNc6nrKYROX8pVNaBLMOur6fpfSsY6NxGcihFPGJh46HdtKmvhUZo06mQIMgtBBFLIpSLdIZJd+5kaPuL1J3WDHbcCAuftxwKBzmyhYWAJx5/gpc3voSTccLWwFN5Z3MpKGtg2xGcTAYpJUuWLKWlpYWqykqUECSTE3R3d9PZ2cnY8Aiu62FZFp7n+VYCYaBNFDwl0wgr55e+NVRRUcE5Z5/DRRdfxIc+dBoVlZV4rou0ZOkX5igdpXcr+UqQ47kcPHiQRCKBUh5KaZPAKgg9BKUsBqUUUlgIrWlsaCQajRR9ZlakNcpTDAwM8Pjjj/OrX/2KAx0dVFRU0HmwEymkEWLEkJEqKhrm4/XsQAkPIVwsIQAJSiOEaxg9GbQ3hk73o4fb8LRgPFZOOl6PjtdCy2JiTQupbFpKeU0dFYvmkznmWIaTw3hOEqk9InjY2iFoX6sL/EmWFEihEThMDHeR2PUKdatOgbp6Y7lYAYpn7lbXESsslOfRunMnGze+yODQANIKHnIOAmkKEau0wvM0kYhNWXk5p6w7lXXr1rF27fupq6slHoshpMBxPQYG+ulob+e3z7/AE088gZTguq4vbHIGLXxOBT97rsfiJUu44IILuHD9p1m9ejXxeNwgPpipiDvcNJ0ectQ1dpQOhcx76Lguvb09OE4GpQw4RVrSh6bmfLpgu2ltgttaCJpbWnJgs3OcjdYMDw/x9NNP8fOf/4zW1lbQkExN0Nl5kImJCWJl5VgiBlY50dp5TIgoWlsIbBABsEb5FZq0XyTR73ynBUJYuJk0qYkJkl43Xu9u0hXVOLUtpKrqqKirIJ4Zx4nYpByN1ime+B4AACAASURBVCoMaoPp72Hj+GjM3PwL45yy3Qnc3v0MbNtEwxmrgp6r/h0eFRYlSPOb3zzBG29sNR3sfFdSQFkkRWkSQmDZkuZ58/jsZz/L2Wefw5rjj6empiYcR0ppmsWjSE5MsO7UdaxevZoHH3yAtrY2vwT65FT42E466SQuuvhizjvvUyxavBgtDBxQSisL2/ud00yM1qMC4yjNhXyfsNa4jktfX39WUEhprIucHAr/jDzytA5dw83zmomVKMszG0omk2zc+CK/+MXP2bZtm2/ZaDSK0dER+vr7WbhkCWAhRJxYTTMjIoLWEcMXpPYhwFlBgV9qXGiFUAIp/Aq72AYC7CVhbATGe0iLCNgRo3BmUgjPQUiN1gJP2EhtysZbeCgd5FtANitDY6sM3mgPiV2v0XDix6FMglUGVjbwP5d8xSNHWIQRIFMOvLenm9de20xfXy+gEbnNzMNT8iF+puG8IWlZzJ+/gKuvvpoLP30h8+a1YNsRlGcKAUorwJObC5eVV/D+k09m6fvex/IVy/npT3/C7l27UcrDcTIhNDZwI9m2jQYcx6W6upozzjiDiy6+hA9/+DRq6+rDiLeB18qi2WZn/VZR4dWmAt0Vfvao8DhK05PJ6/OQlkXGcejs6gwFhfm76S8zGYpHC7BsC9uyEULQ2NhINFpYSG+GDmcNGSfDpk0v85//+XO2bNmClH6vcBSuk2F8bJSO9v0sWrwArT2kFad8/jHh7neVIGJFQ5QSgSXho54ERrBpZaGFQGpNBM/cp2d6WYCDcgSu/75LoX1PtSkTr/zvsvBlfyHIpkVa2sXOjEOijaGtT1B3yqfAagEqcs98DwsLCPCnCAFbt26lo6PDNJTXpgZ8UVJRidO179err6/n059ezxd+7/eoqq7y/aYCaU0Ny6uurePTn/ks0Vicf/7B9+noaCedThtLxZKh/zVIZlpyzFLOO+88LrroIo477jhTwiAMdGdzQH736Xilrlhqmx0VFEfp0EhrbbpSdnYWoBVlTh6UoTDTw//Gsiwsy6KsrIyamloDBpnNHvSZuud5vL5lC7/4+X+yceOLocAKcCWO8kinkhxs34c87YOAQogY8bp5RCIRVEb5nSgiSK3DRmkix92tc5xF2hciQig/h0KG96uFaQ0rwx7euSQL+IEOcS9CCCNYNERxccZ7GNz5LHXHnwCRehCVhwSPObKEBRjzTwi2vL6Fzs6DgP+QCuoqBYlu4Wn+gmsNkWiE445bxeWf/wKVVZXBoNNeWivPD1oLPvWpT5EYGuAHP/gnxicm/GxyG88P3llac9LJJ/Lpz1zE+eefT8v8+T5gIW8bTH290rd/mEkXfC38/r0mHCZ7KjNdh0M9/51Ah+ceTKKphdYeTiZDb29vMay9yBuQIzAw1oerFXUN9VRUVswBAKJRnse2bW9w802/4Lnnnsu7qEFOamKxCK7n0Na233ctCcBCWFHKaxpwxg6EKEaRN0sRgliKm6X5nD20HrLvWv4YOR8Pxiz4vcj5e5AP42XGyQz3QqIXqjzI8ZzMhY4YYaE8D2FJUIrRkWF2797F8MiwCQ6FDUUKN1KusJBYloXjupSVlbNq9WqOXbbctFuFGSXFaWWsEmnZaKX43GWX8+aOHdxz992MjIzguC4ISW1dNWeddRaXXHIpp334DKqrq0MXWt54Jb4vtd1K39HholLCopDeTYzuUOmtEhazGeOdQIdJ6EmJ9hTjY6MMDJiE2SnzJETW+auFMPFvpairr6e8snLa97S4GKdg165d/PKWW3jiiSfIZNLk3VsgvKRgfGyM9rZ2n+lKo4DKKPGaZgY7bCqjJu9Bo7LJ7f41p5iR+bvwK+f6vwtFy7QaoyhSMoMTlefhOS7O8DCRxYcOvT9ihIXredjCSPHOzk4SQ0PGFDTqB8VZp6U3pBCC8vIyFi5YEEp3Yx7mevtKU7YEusnNsOwI11z9JXbu2MWrr75COpVi6fvex3nnncell17C8uXLiURjhMXIpnmOM3sNpx5EK+UH5bNkoIrKr6Mlw895nofjZnBdFyeTxnUdEBLbsolEIuaIxrCsQrhiGEBCBWCAIO5SsnLuod3ZW8ZitQ4RdLmzyK6f/0J6Ho6rcBwHx3FwXRcpjfIRjUawbZtYLGb2kcidsbkjzzPXCIAM7yTS/hrIAHeuA20YZrLyuXWVoJQgMC6ogYEBUqlk0d+Ln7nvlgp99RqlNE1NzcRjM0jI813Nwefa2tu47fbbePTRR01Jj6DmeuFpSjMxkaS3t49kKkMsbkqPCBmjrL4F1ypHkUR5JtpQCJOfkkRWRARrm8vW57IjApSYUh4jiQQNSPwMvzmMZuiIERbS8k1AIenp7WVibDwIQphG8TKQrKVJKZWNWWAsFfyNTmBdFG3EfC3GIK6yzEVrzbHLlvG5z11GT3cP9Q0NrF+/nk9/5tM0NtSb8QKNYJqOXjPfMNMIC61BeXkamEbjOBn6B4YZGhhidGyUoYFBEokEIyMJUqkkqXSSdDqFQBKNxojH48RiMerqG6hvaKKuvo66ujoa6huoqqoO8fGe5/pC1LgMSr/M71BhAWYPBP5JIOM4DA4mGBgYYGxslIH+PoaHh0mMjJHJZEgmkziOg5SSWCxGvCxGNBphXvM8sz4NDdTW1tHU1OQLkGDPiBAA8bYJjFJmquE4aEuAH7cTuX+focAIvlqFMT+tcTJpenv7SmrgxYHtQveU2cfz5y+YERIq9xqdnZ3cfdddPPTggwwPD/vPgrBIX3gO4HlGSA4NDdPXP8TCRZW+FyFGvGEBOlaFl0mC36cmd94zh7xnXXD5FX6nX+V8xJhfZ04YhS+TzuS40ee+t44YYWHb/q0oxfBQglQqlaPVzHwcgWB0dIy9+/fh+dq20pMnBU1Flh0BDZ/85CcZGhpi1apVnPrBdZTHy/zxDsWDODeSloVWHp7nkkln6O7p4WDnQbo6O2ltbeVgRweDg4N0d/f4DHEEpTw0KkfrEmERxKqaWubNa2HBggXMXzCfZcuWs3zZclpaWliwcAGVlRV+0UZlHIEi8Ki+80lj0OmpZIqDBw7Q3dNN58GDtLa20tHeweDgAN3d3QwOJRibSIb7DQhRPUIYYdPY0EhzczOLFi1k3rx5rFq1iiVLjmHhooUsXLCQsrJylNJvv8DIIeUpgwiyTP7A2OgYY+PjjI2NkUxOkMlkcgAbBQyOfKsiFosxf/585s2bl/sJwORY9PT05KERZ0pBWZ/m5mYfCTXdCeac3t5eHnjgAe677z56enoAcF2jIFpTeLLSGROIX7BokVG47CjUNKIiZeg02LYk5TkFc5x8wJCF53q+KGDpWf/UDEngOziwbZvyioqjwqIkCcFEMknGyRRkfs58kcbGxtj2xhu0tu5k9eo1Uz7s6ecD1dXVfOUrX/HNX+mHJ7Kumt8laa3p6eljV+tO9u/bx7Yd29m6dSv79u9jaHAIO3SFaD9Yr0IFUgSmvw7mrxkeGiKRGGbHjh0orSgvL2fhgoWsOX4N69at4/g1x7PkmCXMa56HlFYJ6+LtZ4qlKJ1O093VRdv+vezfv5/XXtvCm29u48CBdkZGRtC+6yjwLtuRmGlUE1Qz9r8GR29vLz09PWx5fTNaa2pqajjmmGM48cQTOfWUdSxfcRzvW/o+aqpr3jECQ2vF6MgE3d1ddHV3sXfPHrq6uujv72V4ZJjxsTFcN9vVzc+KIHQV5VgUixYt4pJLLikQFoYyjkN3d9ec7jcQFi0tLTMSFlJK+vv7eeihh7jrrrtoa2sL56nUZLHNnLmm03R0HOAD69ZhC8COQd18nGgtSdlLZVTjpkchTMLTCFEYsM46mEzla0Jm7hfw8AVEAIctDnbntUfIC44bD4cQEuWBZceoqKzOO79E6HxG9C4WFpPDJEypb/8XokQt/inG1Bo816F1Zyt33nkXX/9v/43a2hqEMMl3U1MhSsFc2dSXkihPYUnTpD6U9CUmFoiQ7PbJzi/346UAtQFzCrHqyjBnpTUHDxxg3779bHzxRZ555ml2bN9B2sn4Gr8weHWyiowJAQmUVmi/fLrJQBVZ5IcQgeGNAFITSfbv20d7WztPb3iaZcuWcdaZZ3LmWWeyfPmKfGYR3uQ0rrMp/zrJIs6AslaAGUNrzcTEOF2dXezcuZOXX9rIK69sYteuXSSTEyHSJeiRHPY4QGNJgaeMf18pZaDaUvg91w2pnP0zMTHBju072NXayqOPPMLq1Ws4+6Mf49R161ixYoXfx4Qs7Fv4JeoP8xp4rhdWaTWC3FQ6GB8fZ9++fby2eTObNr3M61u20NbWhuNkkNLfE0VuI+ELDEOWZSGlxHM9JsbH/eBx4SkCJ+PQ3d1tlLtCgTGJ4z5ku8rDtiyaGhuIRiIl3Lk6O6bWDI+M8Phjj3HbrbfSunMnSvnWhGUZCKznEkY4w4tkhd7ERJI9e3Yj/VpwyCii7hgqjj8b2beIxGgXmUQ7EW8cSyWRKoPpUK4JatIF89K+0iUAi6BdkQbTndy8a1qHosu8aaCEhScsPwThe060Rvj7S2mNozSejmJFq7Hr5gNWoOeFS1oakB9cq3g/HUHCwn+gypToENLKano+9536dcq6EGxLMjExxlNP/oYVy5dz0cUXU1ZWHqjWk88BUQDPNY/GiphltoVd+HEmm1VxGJAcLSNv1nnnaD8pMcBsu47DwMAgu3bv5onHH+M3v/kNnZ2dfnOobN2dMNfc99sifMamAl2xuC6V9v354dwCYe0plKcYHXbYsvk1du3cybPPPMP551/AJ849lyVLlpj1DOI708ckp6HZM8qACeOHjTLpJN3d3by2+VU2bHiaF198kd7eXizLIp1KmiKPOkiUEuCXwA+et+MY14OUwpThsbJapFIahEHhh8FxZVbO05qRxDC/ff63vPbqa5x00kl8+jOf4fTTz2DhooVEIxG/LpiFJad7XWe3DlppPM8Nk8/QCqRgz65d/Pa3v+WJxx7npZc2Mj4+7gs/wnWQoamZM16BK0pojSXAiljU1VazaMECSr0z6UyGAwcO4LpuUUwjXMVJhIXjZKivr6exod4U+SsAJCjlIaQBboyPjfHMhqf41f+7hdad2w3U3Xc1hy5EIUOGGnaV861hrTXpTIrhRMK4vbVGKQurejGrPnMdXn83HTteRva9SWy8EzHSiR4fJJnox1KuSSJEY2tTKVZ5pl2twFgf0u88aBS1wLLQfuMoMyuNwBMCV9hh33Njz3l+8zWNpzTpjEKXVRKrXwrzjgVhBz3+/GeV/b8UHWHCIp802l8JTX19A2VlZXMeS0qzYfbt28eNN/4H8+bN4+yzz0bah2m53mLvgmVZKKUYHxtnx/ZtbNiwgQce+DUHDnTgeR6edxjdHDqfZxQqdlJKXNdj27ZttLe38+qrr4YFEpuamt42J1TAHJRSDA4M8PqW13jyyd/w1FNPZbVcHTCb3BpFpV+wYm/7ZHdWWlW2bQvXdXnl1Vdo3dXKppdf5rMXXczJJ3+A6urKt8YlpTXRWMyAOYCJZIrWXa3ccvPN/PqBB/AyDp4yHSeVVlg5LqbJnRm56yBC7TkeL6OhsbHExxWZdIaBgcGwVepsSAhBQ0ODcUGVmI5ShqGmnRS/ffFFfvGLm9iy5fVQ0BcF3HOnpo2gCARKWVkZJ590Ip+56DO+q1CgpQ1IsKJYzdUsbZ4PzjpIHITeTtLDvXTsfANvbAgnOYKeGCaSHiXiJbEtF6mUX2xco4WFDrKxA9RZYLMLAX6vc0/YeMLvaYECrZCBN0CDkDZWWRnR+gUsWHu6n5AXmcbBNj0dOcIi8P0haG5upqKinLBl6izjAkbDECil2b+/jR/96EcsWLCAVWvWHP6JHyLprNGcwwA1HR3tPPfcc9x5++1s2bKFdDqNbdtIaTb9xMQ4kUhkOhDWtFRqefN+1D68VCkSiQQPP/wwr732GldffTUXX3opixYuKh7gd0BSSkbGRti/fz9Pb9jA/ffdQ2trawghtvxyLsaPnXdD/lGAhPPvIQhUFrbczT/fnJFLhim7aKVIp1Pcd/997N69m9/74u9z3nnn0dRUgtEeIhkhaEAPiUSC3zz+GD/96U9obW3Fd7gRjUZRSvmWU9aBUfI+CgAbSnvgmTHq6uqoqakpmoPyPCbGRxkdHQm191ndgzDvezQep5S0sG0Lx8mw+dVN/OTHP+bll18O3bSBFV5oMeeCFIWUWFIQiUQ49dRT+dof/zGnffgMPCeDjERy4g3+mogoROrQjZXo+hOIaDh27TCq/wB9B7Yz2r0b2buPyFg/IpnAS4+ivQxCKxwEWggiWoXlyJX/O7PDLLSQRlAg8l4bU1LEeFFcEUGV11Oz/CTKVp0KlKF9izZg+LlPcKZ0xAiLgGEKIWhqaqSystIUI8szS0XJb0tRgC/PpNO8/vrrfP+fvs9f/83fcMwxx4RwRxPHeBspxLxnjcZ0JsOWLa9x5x13cu9995JOpsJ1EEKQTqewpEApDymivh9T5+ycrMYoS+ym2W4wT3lh1VwwaJGOAx3ceONP6evr5eprruHYZcsmyb8wVOj8my0VBhEBhhMJXty4kdtvu50Xnn+OZHICKaVfwE6RyaQRCCIRk2Dpj+TPZ3aonanALCLna9BWV0rjUNj6+lb6+v6Zgf5+Lv/85SbL/7BaGOZZDw0Ncf+99/EP//B/GRkeNrEGIVCeIqMyWFLiZDLYtmUSX6ceLvujUnho4vE4DQ0NRCLFAWjHNW5Sx3FnLSggeN+bSo7tf4DWXbv5j/+4kVdeeSUvIO+6geswe09SBtZQ9jmUlZdx4okncv31f8gZZ54FAuxIBK0UTiZDrMyvdCskEAVRCSgyRECBjJcRWVjH/AXLmK9HoWcvuqeN4YP7SfQdwBnuRyVH8TJppJcClUKQRuD5rtJAIdRooRHCdO82loQfZ0UgpYWrJelYPfElJzN/3bkg437o1vQ1z67LrJf6CBIWgR0mBS0LFrBkyRIqKioYGxvzffAF/tRpZKvxwZsHMpEc47nnnuGfvv8P/I+//B8sWHQMnudhT9O+sahkwRzf86zxXxzJENoUG/Q8l6GhQTa9tJF//bd/442tW3Fd1+R+oIjHDQa9LBZFK4+ymJ8MKAJGakaUAbLCn7Ms1KunYHzZCU/+CSkl5eVx+vv7uPvuO+nv7+Mv/+pbLFww36/rk7124KcWvjCcDl4wGWnPBE6FXzq+v3+Axx77L/7fL3/J9u07MPEqRVDZVyCw/Y6FynMxDoCc+xLgafIY9+RMXIWaqgg10KDRVb7/zhISy2fGQkPUjtDX3cN//OQnJIaG+NJ117FokW+JHQahoYGJ8THuuO02brjhBsZHRo0H3VOmC5v/IU85RCO2vzYq7/x8pxMFEFDzlpWXl9PQ0Ihd2Btba5ITSTo62nFdp2SpjunbgAoWLlxELBrzPQkCrTx/iQQd7e38+N9/xDPPPIPnuUSjER/8wiToKYHWXqi8SClZedwqrv3ydZz10bP9SrhZlGUsFgsern9rEkQZQoBlC5/DWkAEdDnoalg6D7HkZGpPTFPrJBnbv4ORjl0ke9uRI90w1o2bSYCbwnUySK2whAhjF6ZqrcJT4HrgaoGwItiROCpaRfmSk1l42qXQsByDA3ZMbpWwTauN8OnNzi11xAgLQpeToQ984BSef/4F9uzZHQawgk0yq2ExmyI5McGzzz5LTXU1f/qNv6C+vj5Ej7ydpBG4rkd3dxcPP/wQP/3xvzM0NBT6Yz01VxYbjH94QyzGD2zcZSOjozz33LPwve/xP//nX7Fw4aI8K+lwkSn+qMlk0uzft59bb72Ve++9l/7+fsBg0oOijZO6QnK44O/CaaaUQgjTKS6RGOK2W29FSMH1119PU/O8PMEzV3LSaR595BG+973vZfOUpqRZXk8AWlBeXk5dXW3J8zOZDH19fXNyQQVzam5uIhK1w41q6k1punt6+Od/+WeefPLJsPJzbvZ2ydF8pcHymwWtWLGcq6++mnPP/SQg0MqhiMXmjucrAdnqsOauFRZSREDEEHggyyGqIOJRuWYelWtPh7FB6NrLePsbDHftJZnowU2OoZKj6MwYlnaJCI2FAZA4WKSljWdXEqmpR9Y207h8LdWrzoD64yBeCTiAhWmtqoz09bWA2XKuI0dYFNAHP/Qhjn3oIfbu3Yvrej7iozgAOxsaHRnh3nvvpbKqiquvuYZ58+YfvgnPiQTKc+noOMDtt9/Gz352IxPjY0SjUWNu60PXQGdkScxqQB2iPTzXJZFI8Mwzz2BZkv/1v/6WxqZmDj87VmQyGXbu2MFPf/oT/uu//otMJoNlSd9/nWVUAYKNAg360ETu7ElrhetmCKoVj42PcddddxGNRvnKV6+nvqFhDqPmVxfYvn0b3/rWX+G6GaNNF617QeMhpn4yJfeKhoqKChqbGilSPYRpT9zV1YUQ0o8fTPfsixF5CxYsyJYm1x4aQX9vD//yw3/ikYcfZGhoiEgkgqdMHwkTj5qcPM8jGo2y9oQTuOqqqzj/ggsIcK9WJOpnspcgH0Go/FJ+dt4eknj+3KWnESKC8WJr0DG060JZDaxcSsXSD1CRGkQP9zDe00Fv+25Ge9twxhO4bhLpZVCuh4xVIcsasGvmU790NU3Ljkc2LgIdh7I6suzdBMHN18BKnr2Se8QKi0WLF7Fy5Uo2bdrEyOgIWmmDqZ4jGT92BoBf3nILdiTCV75yPVVVVb9D60KHmxYEnuexf/9+brrpJn75y1+SnJgATJzFNG+yczJsZ0i+RM0NnE82l1DwitJQu1KkfLdZJBIJ3Q7J5ARPP/00N954I1/72tdMYcXDSI7r8ua2N/mXf/lnnnzyNwaimVPHK1+BmFnoL0gGM9+Xfv6B4BF5WeszswgE4PkxDDMrQX9fP/fffz+NjU38wZVXEo/FptWUC+cTWCQjIyN885vfNHtaiGJBIVTxNGerd/guzbKyMmprakuaqSZmMUDgCpztRSzLoqGxgYgvALTWDAz08Z//+TMeffRRhoeHwzpmltY+XDVnigWxMiEE0WiM5cuXc8UVV/C5yy73Xzs1o2KiOTeeQ/lvh4dAIrB84aHReDKKp42ryY5EEKICEW+mcsEaKk8+21gdgz0wPmKsDdcjWtMI9fOhqhEiNX6DozKDqsoRqgJTSQA8f3vL4A+zoneNsChkedM9Nq01513wKV57fQtPP/00ArDm2L/aKDtmZd2Mw5jjctN//pyqiiquvPpqH6ZbigmIvC+HSlpptHLD+Mu+ffv42c9+xs0334xlWcTiMZRnAnhhcl4IYAn87VnkVKm5WRGbdDqNVsogYTw/yJadRd5whDW3sp+ZSnCInOubfBCTbTo0NMSdd97BySefxKfOv9CMpzTCyiZDzvrpaYWnPN7Y+jr/9P3v8+yzz+B6LlL4LgLlZWda6ErIRbhA9gUjcFPYJJNJAGIxG7fAxSmAdDqDEBCPx00gMuSWRiAXhcnzpmCuoW1CS0xKSU93Fw8//GtWrlzO6WecidYQKWr4U7QQaK3JZDLEYnFc1+H2O25l+843/YQ/8zzyy6eJcL1VkHPjz12LSTqs6LwBfJcO1NTUGNhskVDTZDIpevt6cJy0nzya/5Rl0Tn5nKC5uYmmpkbsaBS0YmRkmNtvv5177rmH/oEBkwyrNWlf0SsUrKbXt/Th5pp4PMayZUZQXH7Z5X7hTekLfH9PTJkcmbtPc+9FZPV8aTrpBbtB+/E0K/w5grCrgAoMg1dQ1QRVy0ErbDTZHCUJwgZhma9m4ZFC5Vw/2McyNwA6a3p7He5vIQkhOeGE93PqqafS3Nzs+2QPD9fWWjMyPMwPfvBDHrjvPpLJ9GEbeyoSUoIwORQHOjq4+aabuOnmm4xmL0RYvRSm8L1PQ4GgAGNNBS9ScEhpjvBnMbt8jSAGFJBSylQbRZBIJPjud79HYmggLEA4J/LfDaUUHW3t/OsNN/DCCy+EKJ+sY2myY6p1E2gtcFwXy7Kx7QhCSlzXzTu0Bssvbuk4TgnmGjCfGd6SNtVZk8kkG196iVtvvZXBgUEikaDi79TP2mjMcVw3w8joMH//9//XBIIPYR2mm3+Q4R+Pl/mw2eLxUul0mPw4Vc7DZFRdXY1tRwFNcmKcu++6i9tuu5Xunh4itl1CQcyfQ3DdwDqsb2jg9774Rb74B39Q4vbm6h7NH0iKnJ4TpT6lfZgsETRxEOUgKkHUgKw1h1UHVi1YVSDL0DKKFtKX18E8Z/IcZ07vWmEx1RYPlseSFpdffjmnn37GnDbiVKSB0dERvvWtv+aOO24LXVTFn5rqmD1JSzIyOsaDv/41v/rV/8O2bOKxuF/BdG73kkuRSITKqipqa2spLy+nqqaamrpaaupqqa6tobKmmnhFOVY0gkJPUvZhlvckJbF4DCktEkND/OM//iNCWrhOhrmuk1aK/r4+fvjDH/L0M0/jeg5aK2LxaA6DzSGh/CM3ZpF1HWnh++SFCV5KK0JZRQVlFZVEojHq6uqor28Ij4qKCurr66mtraOsLKd0tpY5VkqAsyohOIT2feDmMC5UjW1ZWFLy2pbXuPOuO3E9FxXEp6ZeEZRKk0onueOOOxgfG5tiDQKtVWe/x9y/6U5ssP/GNpLhUcQUpUEL1dTUUFVZWWChgus4JAYHGRsd9RNhpxPixS7VJUuWYNsSx3F5+plnuPnmm+ju7sSS4HmOyfWY4vyg17frOixYMJ+rrrqaK6+6KltmZa4KyzuOZMExe3rXuKHmSosXL+FjHzuH1p2mDs+hJqEFJDD9B1KpFN/5229TX1vLpy5Yb0oOvBXZtj6lUikefvDX/OhH/xb6WzPptEERaR86OMublFJi2za2bbN27VqOX7OGE054P4sXL6K6piZP0Pb39bF79242bdrEK6++Sl9fH47j+OVDCrsRmnlMWsIvIgAAIABJREFUZXkIIcLsZSEE4xMTPPLII3z9619n3rwWZiYs8p3h2k8i+/GPf8zjjz9OcnwcjcaKRU0Gu+vOUKcXeV8tyzJVPMvLWXncao5fs4a1a9cyb14LLS35BfLa2zvo6urijTfe4M03t7F7z26SyQlcxyuxB3Ndg5OvmVIaaRlLr6uzi+efe55PnvtJVhy3akb3YskonjvOrb/6JbFIJOw1MpNVyFVvQhHquxBD0vniQmtNLBajuroKO2IX1bbKOA5DiQSWbVyfSimkNbt3Z/HixcTiFby08bf83+99j/1t+/NyZvKLiIo8zIfWAs81SkFzczO///t/wNVXXYnnOgZBiUZ7nu8KPfx06Hi23y0dwcIi+xg+97nP0dHWzo/b2xkfHzeB1SmSwGZKtu/rdTMpvv61P+InP7H46Ec/anIa7On8yDOjXMavlOLJJ5/kJz/5CaOjo4B5YUNTW2hfeSqE8mUpeIHS6TTRaBTLtli5YgUf/8QnOPcTn2DN2vdPWb1z+XKXD5/xEa648hr6ent46aWN3H//fbz44ouMjIyEgiWdNkXjpupZnmVWnomN+D8Pjyi++92/419u+FGwCjnaeIlxlOlMFlbLFXDLLTfx2GP/xejosEHCIfEcF0oFhDUIlRMQFBJp20gpfUGoqKqqZvXq1Vx44Xo+8pGPsHzlyknnA7B85XF5Pz/37DM88vDDPPzwI/T39+Mp82xt2yIWi+Fk0mgvK/QCl3RufCCA97qecYHt2Pkmd99zF9/85jcBgSxqQpVzg2icTIrWHTvYs3sPSnlEiz6f86wE+eBKAdozpe3tSATLsmlsbKKysiqslBB0zM5l0I2NDSxbvhIhbfJFjlF8Ojs7yaTTflymVIwinwpTeD546jpUJsX/+c53ONjR4deGi5JtTZBv8WhtyuRnXBfXc4lGorS0LODaL32J6667johtE/TNFsL38U/L0qd2dU16L5gVzwmJmt+LgtdWF54VfBGFvz18VCL8egQLi3z6/Ocvp6OjnbvuussPUEbCYPChUOCX1Vrzla98hZtvvpkzPvoxUyxMBC/I3Cgsde0XnXtz2xvcd8/d7Nu339QsEmKG+Pgsua6DEJLKykqam5v573/x51ywfj3RaBnGgzq1iWrlxH6ampu5cP16PnHuJ3jh+ee58cYb2bhxI47jGPSJbfv++5mvQcDIH374If76bzppnreQKTOztPZLMme1x40vvsCdd97Jvv17fUEqZ+CmySfP80ilUsRiMU49dR1f+9of8+EPn068vIK5PNMzz/oIZ571US677HL+/u//nldffYVkMoVSmvHxcQTKZ5TCv4v8ew4YsPYZrlIu/X19vPrKJvbs3sOK41YXrXNhKXjHUzz66KMo5RHxe63MhHKXPxKNcsGFF/KF3/sCJ5/8Aaoqq8PrhIw8BAhkwQ9ameJ5uVq6k8kw0N+ftUhFyDpnTNu3b+dXv/oVra2tpFIphCXCGF4pMjE4m/JIBFd5VFVW84UvfIErrrjCKEl+HtBRKibr29/+9rff7knMhIof3zQBPfKlbVV1DS0t8+nr7WXfvn2g87WcQyUhBMnkBA8++Gs+tO4UFixejDzEKqG5rSgnJia48647uekXP8eyjNuopO99mo1uWQZO+5d/+U1+eMO/s3LFcqLRuP+mz0y4ab+LoJRmLNuOcOyyFZx22mkIAXv27MFxnDxrIfeOQ0TUJOMrpcLg5BlnfmTqyfjCWnkmgS2TSfPtb/8tmza9jCUFGceBoC1oeErxuhd2GtMali5dyje+8Q2+/Z1vs2z5Ch91hMHZz9oqFSg3Q8v8hZx//qdIJpO0t7cxMZE0MGLy3YciEBc56KRcrVIp41O3LIu6uno+cMqpU9yTGTeVSnLLzTezs3Wnzxinn3Pul+rqar7zne/wtT/6I1auXBm2MQ3nnYO80yGs2JRB91zXKBo569bf38ejjzzM7t27fbfu9I2xCoXoa69tpqPjAOl02gxdhFTK5wRKmcKFQgiqq6u55ppr+aM//BoVFRVF65U9fbpnfah/n2rGh2XIOVBhDO1dHOCeLSnPZe3atXz+C1/kpJNORsoAqHb4KBKJksk4fPWr1/Pchg04mRyU1BwyqXOZx2OPPcadd9yRl58wl9jEihUruP322/nSV/+IaERiR4IXWICeiaVlOqcJy0IpE1gVaJSXYX7LPP70T/+Ur3/969TW1s7JzSeEwLYsJiYmePDBB3HSE9Oe4ziOb13Av/7bDWzd+rqPHsr2wp6OsmspsO0oZ5x5JjfccAOXXXY5kUgZnmtcWOatmZsPW9pRhJRUVFXz53/+F3zxi79PXV0tmUxm1pn2wcoeOHiQjRt/Syo5ytSMVuP6pcCj0cjMusoV0J/92Z9x4YUXUlZW5vv+JUJYSGkKVArL1I4SloW0bb8cu8SyI36vefKUGSfjMDg4GFoWZr/MjiU5jkGfmZhbBIt8dF4RVNbziEYjVFVVhRZFLB7Lh5K/hTHHdzO9a9xQxVtolnLO94d+7GMfY2hwiKGhITo62k0RLh/vn6fZlTBlhZ76hY7Zpgzw+Pg4f/iHf8htt93K8Sd+ANuWmPqR/kRmOmUhyGTS7Nm7m2ee3UB7R7vJPZhyM+eui/b94sb/fuaZZ/Lv//5j4vG4cc9ocnzJMPOsTnN9aUVAKkxdI8NAKysjXHnlNUSjcb7//e+brnK68FTfB+/fRxC7CGozSUsQi0c52NnBjh3bWXvCyaUT34KMWdchlUlx8MBBnn/mWQb6BwDC2l1aK3SOj0QX6G5aayxp4hRlZWWsv3A9f/KnfxY2ahJSYMvAigv2wKHpWbGycv74v/0JPb09PPrII4wMD4du0aC9qA4XzLifdA4ySUgZatn9AwNs3foG6z54WpjYJoTMBXOhtXF3tbW1YVs24xPjSJlvmcqCgEBQ8UBpzZrVqzn5A6dQXVNXoIFPLaCyg/k/Kb9EjhCkUhk6O7sRwiIozunPJHvaNPqQ1GStRm3608kcv5lWmohtets4joNl22gh+Nxll/HVr15PU1Nz/vtUINCMD262SWwz+2CwetOKyKLhsu69ydf/EO2AErfwnrEspJQIKYhEo1x08cVcceVVNDQ0+AHfw6dMBMMkk0muv/4P2bdrB046lePDnTkp5SIlvLRxI09veDp0O+W265yKAkEopeTcc8/lX//136ioqDjsMOI8EpJoLMb69eu59tprSxaHm4q01qRSSdLpFOPj4zz22GPTukui0SjxsgpuuuUWdu3alWclzPSa6UyGeDzOFz7/eb71199i/vwFWFZkRq6RuVI0YvPfv/ENjj/+eLwcQTHTOQfVdPt6e3njjTcImIjrObgFfaA9T9HX1+fXnJrZNRzHINQikQjr1q2jqbl5xueWIiFkCEVVnsf42AjDwyPh/bwVvpXAwoRsddkvfvGLXHPN1TQ01L+tRsS7LTLynhEWgN/4xyNeFufzn/88V1xxJbZtvWUbta2tjeuuu46DBw/O6XwpLVpbd7Fx40YGBgdwHWf6k3JICCgrK+PjH/84f/8P/0i136rTZAWJaTNRD4Xq6uo597zzOP/880MUz0xIa3z3kUVZvIxXX311enebgDfffINXNr1MIjE8p7yPqspKLrnkUv7sG/+dqqpq00VNK9/yml0C3czIYPibm+dx0UUXs+zYZbNkxNkayj29vbz22mZcz+T6SCHDHuEBeZ5He0eHjxwTvht2apKWaQLmZDLMnz+fioqKWcxv0lHNmH5p8rGx0bys/sNNWmuTHAkgBJd//vN8+cvXsWTJ+6atEXWU8uk9IywCVI5lWWilqago59JLL+ELX/g9gEmS6mZOufXPgu8tS9LV1c3/97//N50HDzCj4HFBru+LGzfy/Asv+Jrk7OZkWTbLl6/gu9/9LpUV5XhO5i0VEIAfwzCC6riVKzn3k+dRXz/zondCCMrLy1DKY3xigu07dhR8IPdafjlvKbn1V7eyd+9eLKu4/WvxAKLoN2effTbXX389lZXVxg9vRQryAt4KPdC4Ps899xMcu2x50bympJyYciaTYWhoiNGRUTzlZ5YXgB88z6Onu9tcdUZCyQgUrTV2JEJ1TS0Re/ZxjuJpG7SR65o+30odelLndGT6l0u++pWv8o1vfINjjz02LCL5Vl/7SKL3jLAI0vq1X4hPSklLy3yuuupKrrzySsrLy/36MCZT1nVdlNLhUZh9Cr6/VGeFg9BZH6vUQdJekiefeoqf3XgjvT29/pnC74wWZAnn+B618VCDZvfuXbz6yisMDgzieV7YwCj3KH2vJshXU1PNt7/9bZqaW7AiUaQ9GQ4/lwIP6mRH4TVNCZLwQPh1jCyikSgnrF3LOeecQyQSMc1zhEBpHR5B/aq8tVQaW1rEozFGhhLsat0dPre8aQrwHMW+vXvZvHkz6XSKaDSCkRW5a5t7Tz46Ugm0AuVpTj/9DK699su0tMwn65MU2dwODWHmdV4G9qGQH8GybGrrGjjrIx9h4eIlIKR5TtJGIVEIlC99pZZILXw/vZln0Bp2aHCItn37w/4jhTEe5Xl0d3UhNGRSaSxE0VH4nLUGV2mkZbNg4ULKKyr8+II5pt8bBaR1CPRIJpN0dXXOetWK9krh3wvuSQqJ4ygyGRfbjlAWK8e2DPzbBOhLlBsXlh+/m/qeSueEz+Jepr3CdDTVu3r46T0jLIrJ9Hs4ZulSrrjySi6++CK0VkQi0TCb+VAo0FiktNBKcdddd/Hc888xPDJsAq6quBhbkEgUWBGvvvoqmzdvDms0TddsKRjDdV1qa2v4gyuu5NR1H4RQuMxk5odoeRRcZOnSpXzotA+FvbgLs4ZL6nXaQCSlMJVdu7t7smvl838346KVRtoWjz7yKF1dXXieZ8pfhNfwYzt5VzGRVqU8lNIsXryEc8/9JCedfLLffKlgDd5CxTPMcJeSsz7yERYvXoTjejiOi+f3xZ78ceS7blLpFIODgzmTzp+4pxS9Pb1hnKMwm7rk/HwAb1VVNWXl5TNyXU1JQpjr+kmhpp8IefdxOMncqxEYAsGtt97GY489huvMDPV3lPLpvSsshEBYFnYkyrJly7nyyqv47Gc/i+e5KKVw3enLmSuRPYCwfhCAlgLXdZmYmMCybIZHRrjhhhvoPNhJULVUFmp/PgPT2jS82fL663Qc6CAoRucVzUmTW89HaQ9POcTL4rzv2Pdx7bVfIhozRda0MlnSqEDTnn3AvSSJ/DngZ1AHhx2JsPSYpaxevdq/h9knQh7sPGCYicbH75u+3gCZdIonn3ySwcFBgh4ZyvNyWGUJJiTC/zjjjDO46OJLKCsrzwchFC6N4LAuWyEdc8xSlhyzlFgsmoMKmjmlUob5CgSobJ5DQJ7r0tHR4SskMyz+qE2v6qbmJr++1aynVYIM406lUnT7brHZUO47p0rMR+f+zZJYERvLtpBS0N/fzy9/eQvPPLMBpdxJ1tnfz4e5CN+RQO9dYYHJZnYzGSKRCKvWrOFLX76OSy+9FCkksdjs/LO5GzcQGFJKotEonvJIp1Ls2rWLW2+7la6u7kkTwwILYP/+fbTt34/rI1KisWiRH7r4fPO1uqqSz33uUurraoIZoZUyDHZaf/4hUgkm29jYyOrVqykvL5u1xaa1pq+vN9Q8g57qdjSCEIKtW7fS39+P1grbtrPaun9uqVc9Go0Si8VYu3YtH/3oR2hoqC9Gq/2OeUQkGmX16tUsWLBgBhp8scTKZNIMDw/7P2nQKg8C6ikVMudZVQmWgrq6OmLRWNE150S+5ySdToWWxeG0KnJH0tr0rzCxShutFVu3vs4DD9zv14nTpQVGIXz2KAHvIWFR6OsXkO15rDVRO8Lq1au5+pprWf/p9X5NIKOlRmwbpRVKi7yjkAKNJgRuSgshbZQHlhUFBffdcw/bt20jk3EoCrSKIJYBb2x7k927dxvrQ2nwjHWQp8UX4eJNlc9ly5ZxwQUXoHMqbgopsPLcLMExU5+zBhQaPW0R68J1bmxuYsXKFdlmPkogco5CkloidNb3mk6msn8TAuMgMVff8NRTDA8PmUxh39owYQ/t44WK7ytgTieddBKnffh0k2mvJxEUBXz5cOqaueukPJf3LT2G+vp6wHTvk+DHKKQpEpkzIUEQwzCH9nQOSMN8RimT1a6UYjgxRCIxRNAXY0YMWgBa0NzUQllZ+QwsC1EQ1yk4QRuL0HNdP2bRNe0Ucq1ULUysw/PcMH9ICbMrg6N4SmbfKs/FlhLPc3nyyad4/LHHGU4MEe5r7RH03tZ51nGO5VxQAVeifGzXe4PeM8KiFOVWzVTKQwrJ6tWrueaaa7nooouR0sKO2GFyVG4oeiZbROecE1TBHE4M8+CDvy4Z3BPCfCadTtHe1mZ6Ewdj6dJB9kKqr6vjrLPOoq6uDhFCAw0axGDcf8e+WF+AVVVXG+09AAFMs5B5s9RZ/70Q0oAQpEQrj61bX2dsbAww5dJn4ivxXI+WlnmsXXs8DfX1OdeZfD5505n+I3Oiuro6ysvLQyE7K9JkARNC+Kg3M1PPdenr7SOTcfyYwUy0eYEQpiFQQ0MDsVic6QPYhT/nf14p5Qt0wfj4GMPDs4c5mzI30dA1G1iP0z26oBGTFIKhoUHuvfcent6wwbcgfKDAnKyJo8LiPUdCSqQliUZsjj/+eL705S9zySWX4HkeyeRESXO1UOspPIqu4b+kjz/+BPv27MZ1i/MmpJB0d/fQ1t7mt0mdjrKvitaK2tpqPvbxj4U9xw8/5XP6IHw81WFZprJqNBKZETMvIpF/Xa0VAk13TycdHe1kMunsiz6jF16zZs0aTjrpJKQ1syKDRv9860gIQX19PZWVlQRIpLmQBiNUCRQhjZNxOHDggLmOzxin53HmfK018+bN87tBHiIJfCbvMtA/EHYanA3JiE3ayeAqzwi9wmOa8w0qT7J//z7uv/8+Nm162bfAfdVuupTxkjRbNfLdSUeFhU9aBcgZg5Jas2YNV199FevXrzcVVA9D1rPyLYOhoSFefvllBgcGCv5uzOADBw7Q19tXusRF/qzzjkjEZv6CBSxfsRwwlUnfGsp/MSYTEmD4vGVZJuZi23P3BQeJkwZMQyaTYldra5GgmH50Ay5YsWIFxy5bRjjgdJfP+fpWsAOBoLq6hvLy8kMcRZi18hkz2uQYBfGKmQmKYDRjDTQ2NhKLxQ5hXoakkFi2TSqV9ONMs19J7edlrF+/ng+ccgrRWGxWbNp1DdLMdR1e3PgiDz30IAcOdJh3Dx1m0s9yVhwVFkcyCQgx9T6kT/glQaSvCR+/9gSu/dKXOffcc8OEPsuyTM6DCprLT85ogvpSuWXMjcYm2LBhA50HD+btsaDPb093tynd7L8YkycP5UN0KiurOO641cRjZYCNEL+LDNX8ORT+CxFMyvQS1vixlpxDaBEeUouCMSXV1dU+isv8SkjTw2Pbtm2mLDUBwKkgLpV3GEy9QFBbW0dLywIqyivDOkVFaKeCR1sY4TnsJCEejxGPl/mKyWTiN6ACRSEapaamBiEstBJ4jrGDTK9zl56enrzg/0zsO6015eXltLS0zExYlFy/nB98FFYqmaSvrzdsmJV7FGyNosO2bTzP4+KLL+ZP/uRPaGxsDMcJao1N9c4YI1WD0oyPjPLYo4/y+GOP4bkuUkikeAtL4bzL6b0rLKBgHwvfdSOMa0JALF7GCe9/P1dffTVnnnkmQScz27b8BLOpYwABsik4ZI4fubV1FwcPduKEJTxC9upn444UjVdaZ8neRDxexsIFC/wbyvYVfuuptMAIfMGu45BKJnGcTE4PbHMUipiisYSgubk5b5WD+EtnZ2fYZKl4FpOIMCFoaGigoaHRxHBmqAxOIkMOI4mwQm5xob7JJpj9Wywao64uQHXlnOPn3fT09ORcaWb3oLSitraWqqqqw1RPzMwrlU4zMDAQ5hPlHtOR53lYlkV5RQWnnHIKHzvnHCrChFo1LezYxINE+H1XVze//vWvefbZZ/2Y4VFhMRm9t4XFlGQ2VCwa5cQTT+LLX76OE098v2/G5sM0ZzxiDjzT4My7mAj8tr5f3slk6O/vI5lMzvoFjcfjtLS0FPj4335KpZIkEglcz5tRMhiYaEjANI9Zcky2F7IGkKZ8RW9vjrCdOdXX11NXX2eGCzTQd7kXIR6P09DQELrrpAza+5pA8MEDs69PFsQrDocLKjuo2fu9vb2zrIUVnm56tsdixMvKuOrqa1mxciUR257To1PKY/ubb/LAAw+w/c1th6Uh2pFKR4XFJKS1QrmmgU9lVSWnnfYhrrnmmrBstTuH5DLIuqYA+vsHSE1M5Kh5BiUyNDhEKpWedIzJKBaL0dzcHNzB3OMDh5GEEEwkJxgYGEAKMSNElyrwqy9ctBBhmWBtmG/hKfr7+01zo1lSRUWlXxTPd0EW8qy3bdnmbrNEY1Hq6owADJFvvm7iui5ds06AM0CCpqYmIpHIYc2FSKXS9PX1T//BEiSEoKKyknnzWrAjMY5btYorr7iSuvr6kvt9JvNOplK88Pzz/PqB+0kkBqf9/HuV3sPCYnKnhXFcSBASaVlYtk15ZSXnfOzjfOm6LxMri+G4Tk5tp8motKoaCIyhoSFSqWTORzSJ4QQjI8N+29T8mIcxGHKgHwXMJdC4ssHgwE12uJwnpeMSU7poBCQSCfbu24vrZlDaK/q7Fjp7oPGUQvv3Pq+5mbr6en/crABMpzOMDI/iOp7vwhDhMWXwAYhGI6bcu+9+LBmz+J1QrjkjSKVTTEyM4XmOPw+Rd4ic7zUBYMLE2Kprqpm/cL5/ng7vQSnF0NAQIyPDRVedbm4aRVNTA7Fo6WTQ6aIqxWTqgo2MjtDb1xvi6ETOUThy9vf+zxoWzJ9PRWUVQd7GJz95Hmed9RHKyipMDpR/HU9plAlPhLlR+Vfzo1Ba0NfXz4MPPsQjDz+aTWDV0/WOeW/Re1hYwJQCQ5iXUPq5CkIIqmtr+fRnPsMnzzs3ZGxzERZmPJPF6rpu3jjDiYSfNxDMb4r5Fgwd1IUyf9clzjl0mpWg8M/o7u5m69YtfvZ1Ce0v958w+RIas+ZrTzgh28405+V1HNe0blXaFxK5vu+pZ+W6Tg7q5e0yI4oD1hMT4ySTE37BSEoKMEH2e3zmZ9kRauvqqKmpIT+JhTBekVtmZabeNoGJ78Ti0UnPmK33znU9RkZGSCQSfs2mQmGRfxQJCzQLWuYbF602TL22to4rr7iKVatW+5VyAWGFFlbxCNlD6cAVKWhra+eBBx7glU2bjAU8TUzyvUbvcWExOxJC0NTYxBVXXJHj7jk0KjSTh4aGGBsbL/m36chxHBLDw76sUOh3gP91eDjBjh076OrqQkoZwoeBSbW2ADlm2zZnnXVW9nMll2P2gYbR0VFGR/PbkM60odRbSWNj4ziua7oYTkMhEAODoqr3XVBZMvfhuC5dXd3MJb9FCOHDZuN5Y86VtNakU2kSiQSOa1reFs9q6mtorVm4cKGprCwF0rLRaN7//vdz2WWfY9GiRX4hUAvbtmdkGWhfYCil2b59O/fff7+JqRwVFHl0VFjMhrQmHo+zetUaPv6xj5tfzW2Y0oxJwOBQgvHxsdInTkPpdJre3t6sVvR2mdA5t9Xe1s6mTS/jeQoprRl1zjOxDYVtWZx15pklXvjsz3Nh7mNjY1nrTRcLm7dHYGjGx8dwHWdGDE4IieUz21gsbnz2Jch1Hbq6OufkTgmQY9Fo/LBtpaSfY2FyQKZeZ1Hie6UCYWGF1n/Qr+K8T32KD3/4NFO9QEi/ZM/sUikTiQQbNjzNo48+SiadypnjUcFxRAgLz/XCF1z7hcOCrniHV2M0Y5RXlHP++ecTjUZN/oUUpgTFFKia/B4URouJxWJ+opr5vFaKxNAQo6OjRZj4ySIruT+Nj0+wd89egmwA8XbAAHPi6slkku1vvsnrr23J4uR9hNdUzEvapnnPoiWLWbh4UQl3jMmLCWCms320AwODDA4OThpsf3v81JpEYoix8fGcvVoqKmAOrZVf3gRisQh1dbUF4xkwgZPJ5MFmZ0Pl5eU0NTcRieTm68wdMiaEKU0+MDBg7qFoxgVuzpz4XPDPtm2ampp868sIHCmt0Or/3GWX875jjyUSieB5fi2yWZBSmvb2Nu6//z5eeOH5bPVe//3Mnenkx5FJ715hoQt+8Bl1Mplk00svc99999HW1gaYIF+YoX0IwiNgIrFolJUrV1JXW+trXL5XVJPrOJ/2Bmpr64jH42Z7+cG6wcEBRkZG0NqU95l2S+a8UONjE+zatdvUzFEe2djFbD3Lh0AaUyLb0+zZvYffPPEkvT09OUHDaZixEFi2RSQW5eOf+ATS1yDzDq2Jx+KUlZXN2NWQS/39/XS0tzE2OmyYiS4U5m8PDQyYZ6/05ELCBHlNUUlXuSA08XjMwGbz4lnmM47j0tXVNSeXSkNDA/V19X5XOUrMZfaUTqcZGhoylmZB4iRC5CVoQs73/lfbspk/f76xUAuSNKSUfPj007ng/PNNbs4crSmtNTt27OD2229n957d4a3qQGDMts7PEULvXmEBYW8Dk1XtsmPHdu6++y5uuOFf+OEPfsDmzZuzlTjn9AwLXwr/ZRWCiooKqqqqTL9jzTT9fI0mmBVSBgff1NRk+ihgXB+O4zAwMMDExERO3+qpGUcuOY5DV1c3e3bvnqHAeotIw9BggueefY4XXng+99clWUzh3QTxivWf/kzpxEKtKCuL09jQSDQaDQV2eExTqTCTSdPauou9e/cZofoOgBgDDAwOzrAemNHLTfdAQVl5OY1NjQV/N7fleR6dnV1z2v/zmoMci1LrODeBkUwm6e8fCLOtC2kqUaQxfcGXLFmCDKz5QheiUnzms5/ltNM+RE1NzYzcnvnX0CjlMTY+xksvbeTee+5mdGS+QrR2AAAgAElEQVSYoN5w2JTqPUjvXmHhMwjPdWlt3cm999zDj/7tX/nhD3/As88+w4GDB9i8eXMYWJ29llFq22Z/1lozkUz6CV0C5U314hiET1CiWwiBbVu0tMyjvKIijC2MjY0xOjrqu88IM8ZnIiiCOXV3d/HII48YFMgcmugcDnJch1de2cQjjzwSQjY1lEL7mr/lKGUK0yZ0zZo1rDn++NJuBCFQSrNo8WIikahxaOTWhJh2rQTbtm1j27Y3TLnud4QyKBjoH2B8fNxYBTMQYIHyUVFeTnNTU8FoRltPp1K+y232e2FeSwvRaCxnLx46GWHRB2H5m3wqLApY+H11dRW1tbWhNV48gKapqYlLL72UVatWhf1TZvr6a6XwlIdA09vbwyOPPMxTT/0GjfJLirx3M7zfscIikOB5Dd190xofgtnR0cF/Pfoo//6jH/Hdv/s7Hnjgfvr7+9AaXMfl6Q0b2LWrFWMNzObqU2lRhlGNDA8zNDgYontKahwFEE7pvyBaK5oam2hoaDR4f4z5mxhKkEom/Q56pQRVPpVCjScSCZ544gna2/bnDHE4uWHBPHItGG2aLO3asZN7776b1zZvNmY9vvuoFDhSiNDnrJTp4haNRrnqqqv8IYuZnBG8HkuWLCYajRTPadJ5Z9f0wIEDvPTSyxw4mM1sDvpZv1UtPvPLzAf7QvtWZYbE0CBJXwEpyiovmFIgDCSC6qpqGurq8z/sQ5AHBgYZHx+bU/nteS3NRKMRguhCqSGKcySmXoOJ8XHT9EibHAhdhBHO+bzI3Sfmd01Nzdh2BCEDWHv+OUIah9sHP/hBzj33XJqamkJrPljrEjMLDyFEiEaTUtLe3s4vf3kL2998E8uyQgTae5HesXcePNSwoY320H4rxM7OTp55+mlu/I+f8nd/93+49557TAVXpX2fo8JzM+zds5uXX9pIT+9sAnxTWBQ+808lk2ze9ApOOoPECLRS5m4YpPODc0FPC89TnPD+E3w/c5bZDg0OMjY6hkAjfeY/+ZyCa2RfVikNSqa9vY077rgjT4AVt2Q9FMrOJ4gFBbfR1tbGnXfdwVMbnkRoY0WZlz7LEArzCi1pgRZoBRE7wooVKznnnHMAQTTso5A9/v/2zjzMrqpM97+19nCGmqdUZYbEWAkQiJIoBGQy0Iwh0YDa0tpOcNupFfs2drdX6O6rbdut4L20Ps99+nbTKJOXgAPIoAjdUSSJDAnKTOZUqHmuU+fsYd0/1t77DHWq6lSlMlQ8b56dqjrD3muvvdb61je9n+86mIZBa+syYrGJqwcWtlcvCFpgb9u2jSd+8URk+vH9qTtEp4JQGHmezjVwnAxKaeE30N+vQ0qDGg2F9vjClVpKiSEktmXR2FBPdVXVGOGi/RVt06ICB22Gsm07EExGdA8R6d+YzcrEAsN1HPr7ehno69PyLAhWUCJ7jOmzAjfA3PkLkJaNNGyYYJcvpcHGjRs599xzSCYThIJirLDI10qFREdYSYmvFBknw+9f+h3/8R//Tk9PBwrvRPZhT4jjVliE1byMYNeJr+js7GTbtu18/847ueXmr/L979/JwYMHkUHM9ZgdgiH5+S9+wfZt23Thl5zzl/a88xdoBXhuht6uLjZv3pyNwCoh0zOMBNH+CsGqVasCLp/sZ3qDhLywmln2qsXaVESF9zXD6MDAID/60Y/ZunUrBDUJdBLaDI9yFUwypdt1YP9+7rnnbn7y0x8zODiAKqGuXOir8X0fw5DYdozrrvtwEGkWOunzIQ0DaVq0Ll9ORUXFWJ9F/hWKNltKycGDB/n544+zc8fOSEgcKSd39EwF7Nixg1/9ektUuQ6gp6eH4UBoldYGrS0nEglqa+vIJxDU9+y4Dh3t7SWFqRZDbV0tlm1jGKFAnqoGl//5VCoVEQhOt5/nzZuX5UxTamzUR84l586dy4YNG2htXR5t1GRJ3GQ5myGl6O/vZ8uW/+KRR342LS6yEwVHg8N6WvA8D0NqtW9gYIA3Xn+dLVv+k4cfepg333yDjJNGChFlLBtS6uiKQAEIwyr37N7NU089xfLlK1i2dFl26Zl0zOQO9lCzgOHBQX71qy08/fTT+p0SBEV0RgWOk6GxsZGVK0+ntjY/3LG7u5vBwcEgOlQEgT+5bSgGkferEBLXdTh48CC33norDU1NLF++ItihzzACChLHddi3Zz/33HUXD9x/P12dXYH5KL98Z1HfgNI8T4ahGVdPPfVUNmzYoM0mvkIJf4yTWxomvu8xZ84cli1bxv79+0iNpvJPmhcJBvkPPPv+9t/+lnvuvZeGpiZOPvnkGWJXHYtQGL366qvcfvvtLFw4n5WnnQZozaq7u5vhIPdDSAn+xIJWBebFiooKXYo1jBTLgZPJ0NbWppMhFRglDNOwZwBamluI2TF839OVJCf1/U0sTEZGhuns7CAUdFna/pwzFJy+8DMLFy7UEXJAFDKYd4L886095xwu2fkib711iM5ObaKeWHvMF3IimFMHD+7njjv+nSVL3sbZa8+f8D5PVBy3mgXA4NAgO3fu5P777+er/+NvuO3W23j55ZdJpVIItEDxXBd8P/R3ayiwgvwF13F47NFHeeinD9HZ2anfj8bXWHOTjlrKH0xK6fDK1GiaXz/9NLfffnvweqGgGN/+CmBZJoZhsHr1GubObUGaRt53+/r6GBkZIeQByjHcBPRFaoKza2NXuOi6rsPLL7/Ebd/+Fq+++grR4hmZNFRpkUC5i32hOUQphoaGeO7Z33L7d27jvnvuprurEyHAtm0s09S074HPotg/zWdloxQ0NjZy/fWfwrZjxBMVCMMYJ1dE4nsuQgjWrl1LVXUVIaNvGBMwvv6lJ394K77vsWXLf3HHv/8b+/ftxfc8XUfE97P3qsY707idVtCFPr29PWzfvp1/+qdv8qtf/YqlS5dGmwXN35TjryjRbyKARDxOTW0txUaE47gBYV8YOZTTvHFOH5rK4vE4NTW1mKaONJyJKKBQswiDPErZZEkRcqLpSKS5c+dlte5i3y/wgVhWjPXrr+ass87GtmPBtQkEH4wzQiB3jAZjd++evXzvu9+j7WC2JHIpxJgnCo5LzUIpXXz+ySef5M477+SZZ57JKYwe+CU8LSBsS/MGae60bKKP73nRYjQ4MMADm++nqrKKje/bSENjI6FggCzraJjMB7pmhQLwwfMcBgYG2bZ1O9/61rfYt2//OBrFxIM/3LW+970X0dzcQthigbZb9/T0aGFBVqMQ4f/jTe6CfvM8L5qIQ0NDPPnkk2QyDjf+xZdYumQpMVvXLxaGxHNdrYFJmTPJ8s8e9hGghYvQJIuu69LZ0cHW3zzNPffczdatW/E8F8vQQlr5Hm5gRtJFh8aBAs/3SCQSrF27lnUXXxw4LnO1g7FfMi0L5Xtccskl3HXXXfT19uO42qelrWI5GkW44ISviKyZ03Ecujo7+NGDD+Bk0nz0ox9l0aJFJJNJpGEi0FFlky9sYVvDnbB21nuey969e3j66ae54447eOONN/B9n7r6Oiw7a97p6e0llUpFhbWkyPcA5FpZAqsfoM1Q9Q0NII3sPQdNdTIZDr31VtbPIPX7Mti+jxcF5rouLXPnUlVVGWRHCyzDmnIYaiFGRkbo7OyMalIU69PCqqbhgu37Pq7rsnDhQozQySwkY4vdyvxhLGDe/Plcdtnl7N69l+effxZQxGImvi+KZHhHMy7bFl/X3Uin0uzcsZO77voBn/nM50gmE9p8+gdSA+O4FBZCCGzbZvv27Tz33HN6kPpe3o5/qvbOA/sPcM/ddyMEXHrZZTQ2NeXE6EM4FXUCkh+FC46MDLJv7x7+6z+38P3v/4C2trZxHdqTQSnF0qVLWbnydKpravQkUB5IydDgUOTgDD+rnYiHh+HhEZ544gna29v55Cc/wapVq5g3bx6xRAWGaQZV7PwspXV0xUBYSYkKyr1KaZBOp+np7mb37t384he/4LFHH+HA/n1RtryHXxK3UW6fKAUrViznxi/eGBE35rZhLAIhLw2aW1pYtmwZBw8exClSMGo8hM5VP3DQ9/X1sfn+zezZvYfr/uQ63vnOM5nTHDp40dSlMrd/xtxJXntToyP0dPeyZ+9ufvjDH/Lzn/+c4aFhfN+nurqauro6LNOOdvx9gbCImGVLuQcE8Vic+roiVB8KMpkM7e1vBZpCbFKuMD8cc0Kz/YYMBWHk1eEinU7T16dDqXUU4eTBBKEWopRPXU0NTY2NEQtCUUdFEVi2zcWXXMKuXbvZv39vUKXPDwSWiTthv+Q7xXt7e3ng/s2ccfo7uOSPLsawjKkpnbMYx6WwAL0L37RpE/fddx+jo6MYgZjP2q+nmMbvebz2yqv8y//637zx2utcfuXlnLx0KTU1tcTjca1JKB2pkk6nGEml6Ovr5+WXfseDm+/niV/+EiEMPTSVwrbtbMJfyfdksmnTNSxctFgv0iI0C+lB2NvbG7CDziyhnes6vPDCC9x4441cddV6rr76ak5e+jYaGxpIJuLa6eeTo2FkoXyF6/kMDw/T39/Prjff5Kknn+Txxx/j0KFDoLImE9M0taCYgmpuGAaLFi3iU5+6noWLF5X4rexiIaTBpmuuZceOHfT2hg7jgApC5C/gY84isucyDBNf+Tyz9Rl27drFH118CesuXseSZW+jvr6BZCKBgTGOwND0Lb6vo5y6u7vZu28vjz/2OA//7GG6u7oxTTMgUvSpb6inqqo6qO7mIYDOzs6Ir0rKrOll/LZrbTORSDBnTtOY+/R9n8HBQbq7ugvoOsZHaAID7UiO2TF85Wt2WDFewEXpSKVS9PT0EGpfvq8m3XR5nhflStTX11NTW1vE9DsBApkihOSqq65iz55d/PjHP2JkJIXnuZqQcJycj6Kn8xUHD7bxndtuY/ny5SxavLCk750IOG6FhZSSFStWcPLJJ/PKK6+M2RXlOuJyXyl85KHDO9Qr29vbue/ee3lm629Yc9a7OGPVKhYvXERdfR2+79PX38ehtjb27NnNs889xwvPP8fQ4CBKCWxL4mQy2hdSQihqmGEborW1lYsuupC62hoymTSGYUYRMgMD/YyOpggzc2dCqyAIb7TtGOn0KMr32bz5fh5++GHOOuss1q17L6ecciq1tbXEYja2HcMICt14nofveQwNDdHT3c3vfvciW7dt5dntz9Ld0w1KYcdstGVKBCHB2gci8xzShU8qWOSDfqmrq+Pyyy/nyiuvQBgmKD8wL0yEfJPZ+RdcxMqVZ9DV1c3Q0FCRsTHBmYKFJPIRCUF7ezv33HsPjz7+GO9+97s599xzaV3eSk1NLXY8hmVZGNLAC8Jgfc/TpUJ7uti+bRvPPPMMW7duw/NcMhkn8iFZlk0imaCpsSnQYLXJMDM6Sl9vL+nR0UAICMSYzVARk42UJCsqqB3DOKtNSeE5TdPCdZycrOniC2PoW1IKGpuaMEwzouSYPvS1lNLCYmBggOxmaKzQHfPtwF+ofKWLO8lQ+yn1KesFwDRNFp90Eu9dt45XXnmF559/DsfxUMpATuj5z9VcRGSW27XrTW799re4+eZbqK2vReeNTC78ZjOOW2GhlCba27Dxav75n14jE80dP992ix8IhFyPRe4nwlwHAuevxPMd3nzzdd7c9Tr/74f3YZomtmVhGAap0VFGUylc19U7ZcPAtmLBTgikYaGUj+srwviAYsND+QrHdzEME8OQJBIJPvWpT7Jw8WKEYWBaFlKaQblQn56uToaHBlE5O/Vsql32XiaeIApR4JyXAnzPwTI1/79lmHiOw6+3bOHXW7ZQWV1FQ0MjCxbMp6mpiWQyieM4DA0NkUql2LdvHx0dHfT29eBkMrqfgpKdXpgTEFxbyqAoT/gcIhO6bpMSWf+6ZZkkEnHOv+ACbvqrv4rOkQ0BnQzZXnedDNdc+wF27drFzp0vagEgBXlJkZEzU3Mr5V9D79L9oLeNQPB1dXby8EMP8egjj1BVU0NTUxML5s+nvr6eRDLByMgIw8PDjIyk2L9/f1RkKHeXagV+Ks8BoRRexmFey1yqKgKnvPLp6u6kr7cX13EDZWjss9b9mv+3HY/ROGcOVTV1+fejIJNO03ZgH57roDWnrF1diXCM5GevSwG+L/G8DHNb5gVm2sPQKgITo5CCTDpNd1cnfX29eaGzheO1EEIBvo8hJAvmL9Caq8zz1JE3J8ZMj/wXLr3scvbu28/+AwcY6OtDoQVr5Egv6v3Pn+ECSA0P89hjj3L66Sv5k498BCklmUyaeEDfcyLiuBUWofq5adMmvve97+L0OjmLaMFeVRS+pop9isgOn+Mv9j0Px/dxM05QnEebRkLVF4hU5sh/OOnOV08QN+NhmhZKwbp16zjrrLODcp4q2LFl2zQ4OMjo6Gh0vZnCRLtCHUM+QH9/P3v27AY0v1SoKYS7pDAvIRaPBwtt7gQXBT8na4/+rGkarFnzLv77X/zFlO8pf/IKLDvGhRe9lyeeeIL9+w8Eu9fDQ26/eQHBY09PD6+//lrk5whzeUKE4wQYE8+f7UsV0H6H40vQ29PDcMA2O5VnH4/Hqa2todgi7jgOHUH0X6g5TRamqtuuiMVs6uvrsaZB0jgeUkFp3UwmE42vUFhOBhXs2FvmztU5NgXPfyoQQnDppZfy+muv8qMHH5yyKVn54HgOhjQYGBzkO9/5Due+5z0sXbqUePLEFRRwHIfOhot185wWNm3aFNFizASEEBhCZ8AKBb7rkclkSKfT2pQS7HqU0iU+Pd/P0VpKRzweRynFkiVL+LM/+zTNLS1hC7SpJVp4BT09vdGCcbQgpa6JEEYGhb4Y3dc6UkRPVIEhjSiX5XAghCAWs1m1ahV/9dd/zbwFM2fz/fSnP83q1aux7RiR32I6bURvXsNoGN1Phtacguej6eV1VTbP8wM67PGfnWkaUfGnuXNbiMXswOQGHZ2dDA+PTPnZV1ZW0hQW4cpV25QinU7T1tamzTiitICQMEQ2Ho8zd+5c7LBCob7AlNoG6HkUUIkPDQ3pgkK5gqIEqMC8I4TgpMWLg8ijic1pk2Hx4sVceumlrFy5csp5NUJKLNOK1qehoSFuueUWXVbA81FTrJ8xm3DcCgsIeaE8PvanHwtKRhb71PQWBCkLbbFZVd3zPBzX1UJiChO4cAJYlkkymeCWm29m2dtbAYXveuD7ZNJpnVUdmEQGBgaiOPujhdA34bouruvgOg6O4+C6Ln4QfaZDFj1cTx/+ZGaDgj4o/NswTFategdf+cpXePuyZTNSzS/MF5k3fz4f+MAHWbr0bQW248PrU+X7eK6L67pB/+hjKvQgue2pr2/AMi3CGtC9vX0lUHKMHefxeJzamtp8R3jQ347jaA4mgp15CdpwOPZ0VngtpjWVzO0J2qwgNZKit7dvSoJCBoq357pIIWmZ2xIIn8OD53lceMEFXHrpH+kSAcHGUPkhfc349yOlwLJNnMC853ou27Zt49/+7f9qAsIT2GdxXN+ZHliakvhDH/oQtm1HBV+yCKNf8g+hBFIRHXliQalo1wx6QTNNK+KEmeqC7YM2+EqBNA2EIZGmQXV1NV/96ldZ8+6zsGwrS12C3pkapoXvevhOho72t4JSn8WQE+Fz2PABLYSV8pBCYUqBKSWmITEESBSGIPpd4iOVGtOPEDqIx68FIaWMhHDMsnj3mjX8/d//HaedthLP90CaoGT+MeZ5TgzNW6R9FJdfeSUbNmygoaEBKSSepybc8YMOi5DKjw5tR/cRZP+WUveHYUoMU+IrT4c9C7/4Qf6RGh3BdTNYlmT+/BYSyURgzhR0dnZG+TUTI79fKiqqaGxoDC7hZ7VVX+GkM7S/1R7keniMpkeLnCcfsViMWCzGggULSBaYVEqaE0oUPMvQXyQYHBqmvb1jUkGRO2cB4rYNvsK2LJa/ffmM5DSYpolhmlx55VV84NprsUwzWyiNwGyHRKrCQ4Dnk8mkg0KUCqU8RkYG+dd//T889+xv8ybIiUZnflwLCw2d3PSlL32JRYsWYRpmlmztcM+cIyxyMR07be6CpJ3aJp/73OdYv349yYoKnHQ6ihmPvuM6CMMkk3EYHBycsv10NiBMpkokElx2+RV84x+/yfJTTkUaJlJInLxFbAag4NOf/QzXXHsNNTU1MzNOZqBZRrAJ0ZFnsWAHqrfO/QP9AW/Y1BoVj8V1FrjQUUNeJq1PaUgyrkNXd1fwYVFylI5SmuI7rM8yVT9KsXaidI7FtHxJgV9IKUV9fV3O/Dm8pyKkwfwFC1h7zlqWr1iOZVvZkOVSvk9WWzRNk/7+fj7/+c/nWQd0aPSRYTE+FpgFwgJAYZo2X/mbr9A0p0mrjpMQgikBfs5xNB5XJpMJisXATV/+Mtdeey3VNXUIoYqYvYiouXt6eujr65vyTkSRf49+EAB0NIt2FfZz4eGhaGhq5GOf+Dhf/8Y3WHTyUsIUZGkYmJaZDfyZLNhrPBR83/N8/vwLN/L+a6+lZky50SL3wNg+zH19Jvox1K6am5upqKhACk1ZonyX7q4uRlKlFT3KtllRWVnBnKY5oHRbPQAp8FyXvr4+Oro6wZCI8JhsVx/kgSxYsEDnZhzuIhflbShGRkbo6eme9Cu5zwEg47pgGDQ1zyFWVZUXin64EFKy7uJL2LBhA6Zp4gc+Sig+t7LtytcatdnWp63tIF/4/GdxnDQZZxQdITidWjrHJ2aJsADHTXPeeefxwQ/+MYlE4uis/lOE52nN4Zvf/Ec++qcfo6qmNoj2EJh2DFHIhS/1Qtnb1zNtGulc5A7J42GACiE45ZRT+OrNN/PnX/gC8bDqmggc/EKHIs80DEOSTMb58pdv4obrb6Bl7ty894/F0AmFRW1trY4qkyLiNhvo7yeTnrpWGYvHqampBuUjDSPIuIbR0VQUwusFHFqWaZWwww1yLBqzmsXhIFcrGU2nGRwcmtL3fTRliSEli09aHETiQf4TnO7TzFoVLrroIjZu3IjPNPIkhCCRSGDbNo7j8NRT/8lDDz0UVNA8sZzds0BYaPuq74Fp2Pz557/I5ZdfiWFYOBkX09BRJiLwGUTHGDt/oW9jbF0FKUTOIZHCyD+kiI4wZyMs75jJZGhtbeXOO+/k6o3vy0aSFA6+3DYKH3yPt9oOTeCvyKJwtyMi0kA3ijIJf1dK4bouHirvCFHoY8j1O0x0KCHxcw9fZbONg6gVH0VVTTXvv2YT//ztb7P+6o3YsQSGZRfcUanDL9/GXugRGA+xWIwvfPEL3PilL7HkbUsxbAsRmGgcz42eg5+TCBlG3+RpFELov+X063Sn02nS6TQ1NTXYsSQgsew4B9sO0dfXR8g/lT2kZgyIjvy+qqmpZeGik7ATFfgENbKDhDHX89i3b19grtWfd1wHT6m8oxCZTBopBXPmzNEackl8WPlzKu9dKZGGQWo4RfuhtxgYGMzxZWgoIfOOwtMbtomSgpZ583TSZt41o7PkHJMh/3PSMFi6bBnrLrmE1uUrUELgqfFiHwN/XzQ2dIBDOjOK6zkYpmR4ZJAvfvGLQaa65Ljc1U4Ts0BYaGiHsEEsFuNr//MfeN/G91NTU0NqdPSIFqwZD76vKTCklCSTSa677sM88MBmzlzzbs3U6WYmV+ODt/v6+6Mci6mgtbWVm2++mc9+5jP4nheR0DmOg69UXq7IkYJhGBEpXHisXr2a2269ja9//eucesopx1TLEUKw6ZpN3PK3f8ua1WswDJNYPI40DFzPw3GcwLl5ZMeQbdvEEwmWLFlCIh4LXlX09fVO3V8BxOIxKquqigYXOBmH7u6eIBdEvzaWMG8stDPcZ84cnWF+2GYoAAEjoyn6+/unZ2EM6rE0N8+ZSQtUBN/38JXiwgsv4sPXfRjTtqbopylSydH3uf76T5FKjTAzQSnHB47bpLxiCAn8YnaMr3/jG8yfP48f/OA/6O3tHfPZI22vF0IQjydoaGjgL2+6ifVXbyQWs3GdDNKOYZg2Je0qpKS9o4Ph4eEpcdQAVFVV8c4zV3PFlVezYPEi7rjjDl599VUd1SUE6UxGs8AeQQgpQUp832Pp0qV85CMf4bLLL9eFnQRkPA/L0iaYPDMZMzeNJlsGLcvmnLXnsGTJyTz44APce/c97N27N6Dt0NqYr/Lz/0tgopgSpJSYlkVDQ0PQHwLfc3nr0CGGhod1pvMUzhfWsVBKaa06x/E7MpriQNtBfAGmobPtlZ/V/MaD73vEYnGamuboXJUZWp0HBwfp7OwsadNQOG+V1FrdSUuWlNicqT0oGURXSVty/gXn88orL3PfPfdqrq/CDwfXl2PeCWuP6L2377s8/8JzfO973+X6G66nqrIqvNqU2na8YVYJi9Ce6Csfy5B8+rOfZeGi+Xz3X/6Fffv2HVUNo6Kigk984pNcc801tMybpwvbe25O0lqW2nsy9Pf1lZxjoWPm9eKgNS2b2toq1q9fz9lnn81PfvITNm/ezMGDB4nFYjqv4wjCsi1OPe00rrrqKi644EIWzF8QOK0Ds9U4k7cwv/5IwvM9pDSYP28+H//4xznn7LU8+MADPPbYY9kaJ0cYvu/zrne9i9Vr1lBRURm91tPTMy2tMh6P61KqBVBKm5O6uruixbnUeeE4Dk1NTSQSiRz238PXLlKhZjHFzRBo07DneTS3tByR8aK1CB02e9Likzj/vAt56pdP0dama1YUF3DjUKMHMC2TTCbDrbfdyjnnnMPq1WsCwkKizP/ZiFklLEKYpgm+R1xKrrpyPWe+czUPPPAA999/Px0d7YAIEqa8iGPKdT0cJxPxPQkho3rIYYy1aWqaDyGy/PlhVrNSOmlv3rz5rF9/FRs3bqShoZHq6ipM2wLfC+gfzKDKGSVtJHzHoburk+Hh4Uk/G9VqkLo+RDyWoKamFqUEtTUNVFfV899u+Azr12/gqSef4vbSnLEAAArwSURBVKc//Sm/ffa3OvPaMPAyDoZl5tCXhFxSKuca2smpAke0lFlbdMh0apgGixYv4txzz2XduotpXd5KbU2t9tNIAdIgG4SYc+7QqRi8F4rTIz11pJCIYOdXkazkjDPewduWLuN979vEk08+ySOPPMrvf/97fN/Dtu2gEpvmAgsTE3UMfrb9+dnN+u4cRycYWpaF62oSwbe/fRlXXHEF73nPeSxevJDmlnmYVgzfczEMi0OH2hkeGkFv/Cdy3Ob3VLKiksampizTgKN9MIZhMDrq8OYbu6OchCjpTOVnmft+fs9blk1zcwvxeIz06Ah2PD4jxHi9Pb3s23sA18sda6WYxXRfWlac+fMWBjk4Mwu978rmblxwwXm8dcMNfO1rX4sy2rPm3LA/VfS7ESh1Kuf5jKYzgNbmbrjhBu66+26Wt7YGGf+zV1gINWuDgLWjSnk+nucykkpz4MA+fvbwwzzxxC95/fXXIh6acPEPJ4p2BmcpPUKhAUSLo+9rIVJRUcGCBQs488wzec9553H22rVUVFRQmazQ4YgT9d6k9X4Vg3293PSXN/Hoo49OGjrrBwuWYWjfzRVXXsnXvv4Puk6yNAhrTmScDK7j0t/fz+uvv8a2bVt5YccOdu7YSW93N5DlNFKem2evt604vlJBBnu2PQ0NjSxbtozTVp7G6WecwcqVZ9DS0kwymQzoQQIHsWAS84UunpTXTZP0Uk4PBP9PbdEoFIihsHI9l5HhFN1dHbz00ks888wzPP/887z22muRWVA7msMdaHbshBQpYdhkWNCnpaWFk046idWrV/OOd7yT004/nZqaGhKJRJZlGAh1qxd3vMCuXbtwXWeSRSQ/hnfe/HmcsWoViWQyCJ3Nju2+vj5+88xvSKWGg6gc/Z5ZsPAXXs/zPObMaWbVO99BPJ4owexTIOqLzQUBne2dvLjzdwwM9GGaWhBPPHGC0wX9W1tbx3vOO18v2kdknc3dLEFXZycv7txBT09PFGEWQguX/LZn+1H3r+N5uJ6L52p2hIsuuojm5mYMwyoLi2ODnGbrWYznuQwNDjM4oBfJ7du389JLL7N3717a2toKqtBlLdQh549SisrKShYsWMiSJSfT2rqc0047jVNOO5VEIkFFspJ4IoHnZjQVwmR1GyYTFkqx+803uOXmm9myZcvkeRZCRJOltraWD3zoj/nyl/860Dg0pYOURrSoKaWzTUdH06RSo4yMDPPijh10dXVy4MABOju72LdnV17JTSkMkskKqmtrqaquYtGixbS2tnLykiVUV1djx2wSiSSxWByECupvEBAP6m2WOt6Fhchx3gqB73mk06OkRjOkRoZpf+sQb775Ju3t7bS1tdHe3kF7e3vw8XCD4VFVVUVtbS3V1dWsWLGCxYsXM3/+fOLxBDU1NSQrKrFjMV24K3g+5GhqyteLSSZwcE+8i89ZmJXOUbFjmhU2b73OoXDJrXIIKqvxRv2Q/5xUoBlbppGTNDhhzzKpsAA818f1ND2KiD5Y2rKj0NqSHYZdHxEDZm5bdEEsx8ngOo4OSzbzw7uLFELI++l4GR2hGUSpWZaBZdnAzBSROlaYlWaoMdBbP/AV1VWV1NRU0dTczBlnrGJoaBDHcRkcHAwopDXLaiaTCUJgTUzT1OUp6+uoq6unqqqSeDxOsqKSeDxBLKarpenoRKErzOVElxzOABjo72dkZCTacUwku0XOrl3H2NdorSng/hHCCEIwZfB5iW3HMUyT6uoqfL+eOY2NeJ6L42iuo4zjkGcSUHrXbFg6C922beJxHUeeZVLVvaFQyIB0MNQsZgNc10EgMQLzgjQk8XiceDxBXa2uxrZ8+QqcoB6F67gBFxCEGXAKhSEkpmUiDZOYZRJPVmJZJr7rYlp2VsOSEietw1INy47Gi5ASy44FCwmTrIGFnt9A2/H9PAe3NoVqc2q2HKwq7kAfM26FzgtSpS/mE0H5Wt8xTImQFr7n54yhUvwoKtLolOchpkj6Nx0opcPZLdPAsiw8N7cOiEahZkGOZiGFQUzEon73fZWjnR7x5h9RzGJhIcb8KU0riGQRxGIGMTtGXUMDoQ/D81xc18PzXB0dIvQ+VwiBNCSmaUV5GwTnAQhnWjbs3sjj1I90lLGzseDvggkiBB1d3QwMDuEjchWHce9ZBLkNyWQlTY06nDDknFIofGRkZtGyRWBIEyH0zrWiysq/RgnmgCxyd3W6NnLuyTRXTgn3MIUr5mP8+iETXzJLrQHZBLnc55FLAGfFbOwovLU05JoXhGWSV6VP6EAA7fTPv642yRRt9KQhfVHNjsKpkCM4wt1/ycWCRCh4pvGUCtsR0mcI3b9GHp1GifQjBX6uI2OHyp5TCAVGuNkCYU3OvCsK/shqTxIpc/t9dkuLWSwsCiGKbJRENMjCfIAxfsmSTl1kgOa+Fm0Zpj6Qe3p7GYmyt0P9ZXyEl0oGmpBuSs5gz2lDOEyzi0fRM065zeOjyDM4bpCdsJNpgtPRFAsTHMe8P1VHcamPpWRtpNR7msEHmLeRmN65D2drMT3kj+H8ZzmdaMuJx8VswgkkLI4dpj8IBB0dHTlUH5MICl/ho00LlZWVNDU1FZxttu9dyiijjOMVsztL5ARAT3dOnP2kCd8qcFoqkskk9WNqLx/pxzlN80QZZZQx61HWLI4hMuk0HR3tOQl5atKlOHQiV1dX09jYRGEkxpQxnl28yMvqGBgFZhazqPWz3GRxYuIP+5mUhcUxxMBAP4ODg1GGbRABPClsOxaEscY4/AFc2vfzg41nM2Z368s4lvjDHjtlYXEM0dmRrZCmw13z8wGKQfsrKqirq5uZoVsYDXU0imCUUUYZsw5lYXEM0d3dFTm3c3jgxkeQbFdRURHUJJ+JhT03ubEsKMooo4ziKAuLY4iu7u7IX+H7Pig/P9ixMMM2+FlZWUljY2PxEM1xrzaeEWlMfOO43w8i9if4TBlllHGioiwsjiF6A8bRUFiIEnIAAJLJCurrG4q+d1jCYgJkE41K/04ZZZRx4qAsLI4hOru6Ap9FQFg3SQEeITSZYDKZ1PUiSkKhXWs8XpupIJ9Lp4wyyjjxURYWxxBdnV2MjIQ+izCHYSKnhV6YtbCoL/EqquBn8XOWjnGoRcsoo4wTGmVhcVQhQOnaCKOjo/T09uYQ1GnkZ1oUcC8BlmlSU1NDbW1t2X9QRhllHDWUhcVRRVZ76OnuYXBgAOWH4bKqSEpegTgQkEjEqaurIx5PTHFDXxYsZZRRxvRRFhZHG0JXuevs7CSVGomq1pX0VSFIJpPU1M5U2GwZZZRRRmkoc0MdRYS8TkopDhw4wNDQUMmCIoTOsailrCmUUUYZRxNlzeJoQmW57VOpUSoqq5jT3BK9XViBS5cWyKEcV4p58+bT3NISWLNKERiF2X6HI2SKfbcstMoo4w8BZWFxNCEkCIFSghWnnsoHP/THDA4OZt9WhWUvyTM3eb5izpxmVqw4hULn9wQXDX4errAoC4UyyvhDxiyuwT374HleVDq1WL1lUVjOMq90nnaOh7XCJ67XXAyhICpbHssoo4ypo6xZHEWEmdqmOU63F3Va576mstneYnYXfy+jjDJmF8qaxVGEUgrlK4QUUc3m6Sz4oXYxte+XqTrKKKOM6aMsLI4iwq6eCY0gFBZllFFGGUcDZQP2LEVZUJRRRhlHE2VhUUYZZZRRxqQoC4syyiijjDImRTka6iiibDoqo4wyZiv+P3TlIhOn8InvAAAAAElFTkSuQmCC;" vertex="1" parent="3">
                    <mxGeometry x="240" y="215" width="117.33" height="60" as="geometry"/>
                </mxCell>
                <mxCell id="16" value="" style="sketch=0;outlineConnect=0;fontColor=#232F3E;gradientColor=none;fillColor=#3F8624;strokeColor=none;dashed=0;verticalLabelPosition=bottom;verticalAlign=top;align=center;html=1;fontSize=12;fontStyle=0;aspect=fixed;pointerEvents=1;shape=mxgraph.aws4.file_system;" vertex="1" parent="3">
                    <mxGeometry x="70" y="215" width="78" height="73" as="geometry"/>
                </mxCell>
            </root>
        </mxGraphModel>
    </diagram>
</mxfile>